<?xml version="1.0" encoding="UTF-8"?>
<svg id="Layer_2" data-name="Layer 2" xmlns="http://www.w3.org/2000/svg" xmlns:xlink="http://www.w3.org/1999/xlink" viewBox="0 0 389.14 389.14">
  <defs>
    <style>
      .cls-1 {
        fill: #f7be51;
      }

      .cls-1, .cls-2, .cls-3, .cls-4, .cls-5, .cls-6, .cls-7 {
        stroke-width: 0px;
      }

      .cls-2, .cls-8 {
        fill: none;
      }

      .cls-3 {
        fill: #78a3d6;
      }

      .cls-8 {
        stroke: #a5a2d0;
        stroke-miterlimit: 10;
        stroke-width: .1px;
      }

      .cls-9 {
        clip-path: url(#clippath);
      }

      .cls-4 {
        filter: url(#drop-shadow-2);
      }

      .cls-4, .cls-6, .cls-7 {
        fill: #fff;
      }

      .cls-5 {
        fill: #fefdfd;
        filter: url(#drop-shadow-3);
      }

      .cls-7 {
        filter: url(#drop-shadow-1);
      }
    </style>
    <clipPath id="clippath">
      <rect class="cls-2" width="389.14" height="389.14"/>
    </clipPath>
    <filter id="drop-shadow-1" filterUnits="userSpaceOnUse">
      <feOffset dx="0" dy="6.95"/>
      <feGaussianBlur result="blur" stdDeviation="0"/>
      <feFlood flood-color="#231f20" flood-opacity=".15"/>
      <feComposite in2="blur" operator="in"/>
      <feComposite in="SourceGraphic"/>
    </filter>
    <filter id="drop-shadow-2" filterUnits="userSpaceOnUse">
      <feOffset dx="0" dy="6.95"/>
      <feGaussianBlur result="blur-2" stdDeviation="0"/>
      <feFlood flood-color="#231f20" flood-opacity=".15"/>
      <feComposite in2="blur-2" operator="in"/>
      <feComposite in="SourceGraphic"/>
    </filter>
    <filter id="drop-shadow-3" filterUnits="userSpaceOnUse">
      <feOffset dx="0" dy="6.95"/>
      <feGaussianBlur result="blur-3" stdDeviation="0"/>
      <feFlood flood-color="#231f20" flood-opacity=".15"/>
      <feComposite in2="blur-3" operator="in"/>
      <feComposite in="SourceGraphic"/>
    </filter>
  </defs>
  <g id="Layer_1-2" data-name="Layer 1">
    <g class="cls-9">
      <rect class="cls-3" width="389.14" height="194.74"/>
      <g>
        <path class="cls-8" d="M156.3,228.11c-1.09-12.51,3.97-24.93,11.43-35.02,7.46-10.09,17.22-18.19,26.88-26.2,20.43-16.93,41.81-34.35,67.55-40.76,12.41-3.09,52.9-24.96,64.8-29.66,24.4-9.64,25.45-10.05,62.14-22.91,16.88-5.91,29.6-.73,47.48-1.13"/>
        <path class="cls-8" d="M436.98,73.16c-10.34.24-18.95-1.45-27.65-1.68-4.03-.12-8.07.15-12.3.93-2.47.45-5.05,1.09-7.73,2.01-2.57.87-4.97,1.69-7.18,2.48-6.6,2.35-11.87,4.33-16.33,5.92-15.67,5.59-21.18,7.48-38.94,14.43-11.92,4.68-52.21,26.52-64.65,29.67-6.74,1.69-13.18,4.13-19.38,7.1-17.47,8.36-33,20.84-48.09,33.29-9.64,7.97-19.47,16.23-26.93,26.19-1,1.33-1.96,2.69-2.87,4.11-1.1,1.71-2.12,3.5-3.05,5.32-4.03,7.95-6.32,16.72-5.57,25.55"/>
        <path class="cls-8" d="M437.39,73.88c-10.4.25-19.05-1.48-27.82-1.69-4.03-.1-8.07.29-12.29,1.08-2.47.46-5.07,1.09-7.78,1.98-2.6.86-5.02,1.66-7.23,2.45-6.59,2.37-11.85,4.48-16.33,6.09-15.75,5.65-21.35,7.29-39.2,14.22-11.95,4.65-52.03,26.47-64.49,29.68-6.72,1.71-13.15,4.15-19.34,7.1-17.47,8.31-32.95,20.52-48.05,32.92-9.63,7.93-19.49,16.38-26.98,26.18-1,1.31-1.97,2.65-2.89,4.05-1.11,1.7-2.14,3.49-3.06,5.32-4.03,7.96-6.33,16.74-5.61,25.57"/>
        <path class="cls-8" d="M437.79,74.61c-10.47.26-19.15-1.53-27.99-1.7-4.02-.08-8.06.43-12.27,1.23-2.46.47-5.1,1.08-7.83,1.96-2.62.84-5.08,1.63-7.28,2.43-6.57,2.4-11.83,4.64-16.32,6.26-15.83,5.71-21.53,7.1-39.46,14-11.98,4.63-51.84,26.45-64.34,29.68-6.7,1.74-13.12,4.16-19.3,7.09-17.47,8.26-32.9,20.21-48.01,32.56-9.62,7.89-19.53,16.51-27.03,26.17-1,1.29-1.98,2.6-2.91,4-1.12,1.68-2.15,3.48-3.08,5.31-4.03,7.97-6.34,16.76-5.64,25.6"/>
        <path class="cls-8" d="M438.19,75.34c-10.53.28-19.25-1.58-28.16-1.71-4.02-.06-8.06.56-12.26,1.38-2.45.48-5.12,1.07-7.88,1.94-2.65.83-5.13,1.6-7.33,2.41-6.56,2.42-11.81,4.79-16.32,6.42-15.91,5.77-21.7,6.92-39.72,13.78-12,4.61-51.66,26.41-64.18,29.69-6.69,1.76-13.1,4.17-19.27,7.09-17.47,8.21-32.86,19.89-47.97,32.2-9.61,7.85-19.57,16.64-27.09,26.16-1.01,1.27-1.99,2.56-2.92,3.94-1.13,1.67-2.17,3.47-3.09,5.3-4.04,7.98-6.35,16.77-5.67,25.62"/>
        <path class="cls-8" d="M438.59,76.06c-10.6.29-19.35-1.62-28.33-1.72-4.02-.04-8.05.7-12.24,1.53-2.45.49-5.14,1.07-7.93,1.91-2.68.81-5.19,1.57-7.38,2.38-6.54,2.45-11.79,4.94-16.31,6.59-16,5.83-21.87,6.73-39.98,13.56-12.03,4.58-51.48,26.36-64.03,29.7-6.67,1.77-13.07,4.19-19.23,7.08-17.47,8.17-32.81,19.57-47.93,31.84-9.59,7.82-19.6,16.78-27.14,26.16-1.01,1.26-2,2.51-2.94,3.88-1.14,1.66-2.18,3.46-3.11,5.3-4.04,7.99-6.36,16.79-5.7,25.65"/>
        <path class="cls-8" d="M438.99,76.79c-10.67.3-19.45-1.67-28.5-1.73-4.02-.02-8.05.84-12.23,1.68-2.44.49-5.17,1.06-7.98,1.89-2.71.8-5.25,1.54-7.42,2.36-6.53,2.47-11.77,5.1-16.31,6.76-16.08,5.89-22.04,6.54-40.24,13.35-12.06,4.56-51.3,26.32-63.88,29.71-6.66,1.79-13.04,4.2-19.19,7.08-17.47,8.12-32.76,19.25-47.89,31.47-9.58,7.78-19.64,16.91-27.19,26.15-1.01,1.24-2,2.47-2.96,3.82-1.15,1.64-2.2,3.45-3.12,5.29-4.04,8-6.37,16.81-5.74,25.67"/>
        <path class="cls-8" d="M439.4,77.52c-10.73.31-19.55-1.72-28.68-1.73-4.01,0-8.04.97-12.21,1.84-2.44.5-5.19,1.05-8.04,1.87-2.73.78-5.3,1.51-7.47,2.34-6.51,2.5-11.74,5.25-16.31,6.92-16.16,5.95-22.23,6.31-40.5,13.13-12.09,4.51-51.12,26.28-63.72,29.71-6.64,1.81-13.01,4.21-19.15,7.07-17.47,8.07-32.71,18.94-47.85,31.11-9.57,7.74-19.68,17.05-27.24,26.14-1.01,1.22-2.01,2.42-2.97,3.77-1.16,1.63-2.21,3.44-3.14,5.28-4.04,8.01-6.38,16.82-5.77,25.7"/>
        <path class="cls-8" d="M439.8,78.24c-10.8.32-19.65-1.77-28.85-1.74-4.01.01-8.03,1.11-12.2,1.99-2.43.51-5.21,1.05-8.09,1.84-2.76.76-5.36,1.48-7.52,2.31-6.5,2.52-11.72,5.41-16.3,7.09-16.24,6-22.4,6.12-40.76,12.91-12.12,4.48-50.94,26.24-63.57,29.72-6.62,1.83-12.99,4.23-19.11,7.07-17.47,8.02-32.66,18.62-47.81,30.75-9.55,7.7-19.72,17.18-27.29,26.13-1.01,1.2-2.02,2.38-2.99,3.71-1.17,1.61-2.22,3.43-3.15,5.27-4.05,8.01-6.39,16.84-5.8,25.72"/>
        <path class="cls-8" d="M440.2,78.97c-10.86.33-19.75-1.82-29.02-1.75-4.01.03-8.03,1.25-12.18,2.14-2.42.52-5.24,1.04-8.14,1.82-2.79.75-5.41,1.45-7.57,2.29-6.48,2.55-11.7,5.56-16.3,7.26-16.33,6.06-22.58,5.92-41.03,12.69-12.15,4.46-50.76,26.19-63.41,29.73-6.61,1.85-12.95,4.25-19.07,7.06-17.46,8.01-32.63,18.27-47.77,30.38-9.56,7.65-19.76,17.32-27.34,26.13-1.02,1.18-2.03,2.33-3.01,3.65-1.18,1.6-2.24,3.42-3.17,5.27-4.05,8.02-6.4,16.86-5.84,25.75"/>
        <path class="cls-8" d="M440.6,79.7c-10.93.34-19.85-1.87-29.19-1.76-4,.05-8.02,1.38-12.16,2.29-2.42.52-5.26,1.03-8.19,1.8-2.82.73-5.47,1.42-7.62,2.27-6.47,2.56-11.68,5.71-16.29,7.42-16.41,6.12-22.75,5.73-41.29,12.47-12.17,4.43-50.58,26.15-63.26,29.74-6.59,1.86-12.93,4.27-19.03,7.06-17.45,7.97-32.59,17.95-47.73,30.02-9.54,7.61-19.8,17.45-27.4,26.12-1.02,1.16-2.04,2.28-3.02,3.59-1.19,1.58-2.25,3.41-3.18,5.26-4.05,8.03-6.41,16.87-5.87,25.77"/>
        <path class="cls-8" d="M441.01,80.42c-10.99.35-19.95-1.92-29.36-1.77-4,.07-8.02,1.52-12.15,2.44-2.41.53-5.28,1.02-8.24,1.78-2.85.72-5.53,1.38-7.67,2.24-6.46,2.59-11.66,5.87-16.29,7.59-16.49,6.18-22.93,5.54-41.55,12.26-12.2,4.4-50.39,26.11-63.1,29.74-6.58,1.88-12.9,4.28-19,7.05-17.45,7.93-32.54,17.63-47.69,29.66-9.53,7.57-19.84,17.59-27.45,26.11-1.02,1.14-2.05,2.24-3.04,3.54-1.2,1.57-2.27,3.4-3.2,5.25-4.05,8.04-6.42,16.89-5.9,25.8"/>
        <path class="cls-8" d="M441.41,81.15c-11.06.37-20.05-1.97-29.53-1.78-4,.08-8.01,1.66-12.13,2.59-2.4.54-5.31,1.02-8.29,1.75-2.87.7-5.58,1.35-7.72,2.22-6.44,2.61-11.64,6.02-16.28,7.76-16.57,6.24-23.1,5.34-41.81,12.04-12.23,4.38-50.21,26.07-62.95,29.75-6.56,1.9-12.87,4.3-18.96,7.05-17.45,7.88-32.49,17.31-47.65,29.3-9.52,7.53-19.88,17.72-27.5,26.1-1.02,1.13-2.05,2.19-3.06,3.48-1.21,1.56-2.28,3.39-3.21,5.24-4.06,8.05-6.43,16.91-5.93,25.82"/>
        <path class="cls-8" d="M441.81,81.88c-11.12.38-20.14-2.02-29.7-1.79-4,.1-8.01,1.79-12.12,2.74-2.4.55-5.33,1.01-8.34,1.73-2.9.69-5.64,1.32-7.77,2.2-6.43,2.63-11.62,6.17-16.28,7.92-16.66,6.3-23.28,5.15-42.07,11.82-12.25,4.35-50.03,26.02-62.8,29.76-6.54,1.92-12.84,4.31-18.92,7.04-17.45,7.84-32.44,16.99-47.61,28.93-9.51,7.49-19.92,17.86-27.55,26.09-1.03,1.11-2.06,2.15-3.07,3.42-1.22,1.54-2.29,3.38-3.23,5.24-4.06,8.06-6.44,16.92-5.97,25.85"/>
        <path class="cls-8" d="M442.21,82.6c-11.19.39-20.24-2.07-29.87-1.79-3.99.12-8,1.93-12.1,2.89-2.39.56-5.35,1-8.4,1.71-2.93.67-5.7,1.29-7.82,2.17-6.41,2.66-11.6,6.33-16.27,8.09-16.74,6.36-23.45,4.96-42.33,11.6-12.28,4.32-49.85,25.98-62.64,29.77-6.53,1.93-12.81,4.33-18.88,7.04-17.45,7.8-32.4,16.67-47.57,28.57-9.5,7.45-19.96,17.99-27.6,26.09-1.03,1.09-2.07,2.1-3.09,3.36-1.23,1.53-2.31,3.38-3.24,5.23-4.06,8.07-6.45,16.94-6,25.87"/>
        <path class="cls-8" d="M442.61,83.33c-11.25.4-20.34-2.12-30.04-1.8-3.99.13-7.99,2.07-12.09,3.04-2.38.56-5.38,1-8.45,1.68-2.96.66-5.75,1.26-7.87,2.15-6.4,2.68-11.58,6.48-16.27,8.26-16.82,6.42-23.62,4.76-42.59,11.38-12.31,4.3-49.67,25.93-62.49,29.78-6.51,1.95-12.79,4.34-18.84,7.03-17.45,7.75-32.35,16.35-47.53,28.21-9.49,7.41-20,18.13-27.66,26.08-1.03,1.07-2.08,2.06-3.11,3.31-1.24,1.51-2.32,3.37-3.26,5.22-4.06,8.08-6.46,16.96-6.03,25.9"/>
        <path class="cls-8" d="M443.02,84.06c-11.32.41-20.44-2.18-30.21-1.81-3.99.15-7.99,2.2-12.07,3.2-2.38.57-5.4.99-8.5,1.66-2.98.64-5.81,1.23-7.92,2.13-6.38,2.71-11.56,6.63-16.26,8.43-16.9,6.48-23.8,4.57-42.85,11.17-12.34,4.27-49.49,25.89-62.33,29.78-6.5,1.97-12.76,4.36-18.8,7.03-17.45,7.71-32.3,16.03-47.49,27.85-9.47,7.37-20.04,18.27-27.71,26.07-1.03,1.05-2.09,2.01-3.12,3.25-1.25,1.5-2.34,3.36-3.27,5.22-4.07,8.09-6.47,16.97-6.06,25.92"/>
        <path class="cls-8" d="M443.42,84.78c-11.38.42-20.54-2.23-30.38-1.82-3.98.17-7.98,2.34-12.06,3.35-2.37.58-5.42.98-8.55,1.64-3.01.62-5.86,1.2-7.97,2.1-6.37,2.73-11.53,6.79-16.26,8.59-16.99,6.54-23.97,4.38-43.11,10.95-12.36,4.24-49.31,25.85-62.18,29.79-6.48,1.98-12.73,4.37-18.76,7.02-17.45,7.66-32.26,15.7-47.45,27.48-9.46,7.33-20.08,18.4-27.76,26.06-1.04,1.03-2.1,1.96-3.14,3.19-1.26,1.48-2.35,3.35-3.29,5.21-4.07,8.1-6.48,16.99-6.1,25.95"/>
        <path class="cls-8" d="M443.82,85.51c-11.45.43-20.64-2.28-30.55-1.83-3.98.18-7.98,2.48-12.04,3.5-2.36.59-5.45.98-8.6,1.61-3.04.61-5.92,1.17-8.02,2.08-6.35,2.75-11.51,6.94-16.25,8.76-17.07,6.59-24.15,4.18-43.37,10.73-12.39,4.22-49.12,25.8-62.02,29.8-6.46,2-12.7,4.39-18.72,7.02-17.45,7.62-32.21,15.38-47.41,27.12-9.45,7.29-20.12,18.54-27.81,26.05-1.04,1.02-2.1,1.92-3.16,3.13-1.27,1.47-2.37,3.34-3.3,5.2-4.07,8.11-6.49,17-6.13,25.97"/>
        <path class="cls-8" d="M444.22,86.24c-11.52.44-20.74-2.33-30.72-1.84-3.98.2-7.97,2.61-12.02,3.65-2.36.59-5.47.97-8.65,1.59-3.07.59-5.98,1.14-8.06,2.06-6.34,2.78-11.49,7.1-16.25,8.93-17.15,6.65-24.32,3.99-43.63,10.51-12.42,4.19-48.94,25.76-61.87,29.81-6.45,2.02-12.67,4.4-18.69,7.01-17.44,7.58-32.16,15.06-47.37,26.76-9.44,7.26-20.17,18.68-27.86,26.05-1.04,1-2.11,1.87-3.17,3.08-1.29,1.46-2.38,3.33-3.32,5.19-4.07,8.12-6.5,17.02-6.16,26"/>
        <path class="cls-8" d="M444.63,86.96c-11.58.45-20.84-2.38-30.89-1.84-3.97.21-7.97,2.75-12.01,3.8-2.35.6-5.49.96-8.7,1.57-3.09.58-6.03,1.11-8.11,2.03-6.32,2.8-11.47,7.25-16.25,9.09-17.23,6.71-24.49,3.8-43.89,10.29-12.44,4.17-48.76,25.71-61.72,29.81-6.43,2.03-12.65,4.42-18.65,7.01-17.44,7.53-32.11,14.74-47.34,26.39-9.43,7.22-20.21,18.81-27.91,26.04-1.05.98-2.12,1.83-3.19,3.02-1.3,1.44-2.39,3.32-3.33,5.19-4.08,8.13-6.51,17.04-6.2,26.02"/>
        <path class="cls-8" d="M445.03,87.69c-11.65.47-20.94-2.44-31.06-1.85-3.97.23-7.96,2.89-11.99,3.95-2.34.61-5.52.96-8.75,1.54-3.12.56-6.09,1.08-8.16,2.01-6.31,2.83-11.45,7.4-16.24,9.26-17.32,6.77-24.67,3.61-44.15,10.08-12.47,4.14-48.58,25.67-61.56,29.82-6.42,2.05-12.62,4.43-18.61,7-17.44,7.49-32.07,14.42-47.3,26.03-9.42,7.18-20.25,18.95-27.97,26.03-1.05.96-2.13,1.78-3.21,2.96-1.31,1.43-2.41,3.31-3.35,5.18-4.08,8.14-6.52,17.05-6.23,26.05"/>
        <path class="cls-8" d="M445.43,88.42c-11.71.48-21.03-2.49-31.23-1.86-3.97.24-7.96,3.02-11.98,4.1-2.34.62-5.54.95-8.81,1.52-3.15.55-6.14,1.05-8.21,1.99-6.29,2.85-11.43,7.56-16.24,9.43-17.4,6.83-24.84,3.41-44.42,9.86-12.5,4.11-48.4,25.62-61.41,29.83-6.4,2.07-12.59,4.44-18.57,7-17.44,7.44-32.02,14.1-47.26,25.67-9.4,7.14-20.3,19.09-28.02,26.02-1.05.94-2.14,1.74-3.22,2.9-1.32,1.41-2.42,3.3-3.36,5.17-4.08,8.15-6.53,17.07-6.26,26.08"/>
        <path class="cls-8" d="M445.83,89.14c-11.78.49-21.13-2.54-31.41-1.87-3.96.26-7.95,3.16-11.96,4.25-2.33.63-5.56.94-8.86,1.5-3.18.53-6.2,1.02-8.26,1.96-6.28,2.88-11.41,7.71-16.23,9.59-17.48,6.89-25.02,3.22-44.68,9.64-12.52,4.09-48.22,25.58-61.25,29.84-6.38,2.08-12.56,4.46-18.53,6.99-17.44,7.4-31.97,13.78-47.22,25.31-9.39,7.1-20.34,19.22-28.07,26.01-1.05.93-2.15,1.69-3.24,2.85-1.33,1.4-2.44,3.29-3.38,5.17-4.08,8.16-6.54,17.09-6.29,26.1"/>
        <path class="cls-8" d="M446.24,89.87c-11.84.5-21.23-2.6-31.58-1.88-3.96.27-7.94,3.3-11.95,4.41-2.32.63-5.59.94-8.91,1.47-3.21.51-6.26.99-8.31,1.94-6.26,2.9-11.39,7.86-16.23,9.76-17.56,6.95-25.19,3.03-44.94,9.42-12.55,4.06-48.04,25.53-61.1,29.84-6.37,2.1-12.53,4.47-18.49,6.99-17.44,7.36-31.92,13.46-47.18,24.94-9.38,7.06-20.39,19.36-28.12,26.01-1.06.91-2.16,1.65-3.26,2.79-1.34,1.38-2.45,3.28-3.39,5.16-4.09,8.17-6.55,17.1-6.33,26.13"/>
        <path class="cls-8" d="M446.64,90.6c-11.91.51-21.33-2.65-31.75-1.89-3.96.29-7.94,3.43-11.93,4.56-2.32.64-5.61.93-8.96,1.45-3.23.5-6.31.96-8.36,1.92-6.25,2.92-11.37,8.02-16.22,9.93-17.65,7.01-25.36,2.84-45.2,9.2-12.58,4.04-47.86,25.49-60.95,29.85-6.35,2.12-12.51,4.49-18.45,6.98-17.44,7.31-31.88,13.14-47.14,24.58-9.37,7.02-20.44,19.5-28.17,26-1.06.89-2.16,1.6-3.27,2.73-1.35,1.37-2.47,3.27-3.41,5.15-4.09,8.17-6.56,17.12-6.36,26.15"/>
        <path class="cls-8" d="M447.04,91.32c-11.97.52-21.43-2.7-31.92-1.9-3.95.3-7.93,3.57-11.92,4.71-2.31.65-5.63.92-9.01,1.43-3.26.48-6.37.93-8.41,1.89-6.23,2.95-11.35,8.17-16.22,10.09-17.73,7.07-25.54,2.64-45.46,8.99-12.6,4.01-47.67,25.44-60.79,29.86-6.34,2.13-12.48,4.5-18.41,6.98-17.44,7.27-31.83,12.82-47.1,24.22-9.36,6.98-20.48,19.64-28.22,25.99-1.06.87-2.17,1.55-3.29,2.68-1.36,1.36-2.48,3.26-3.42,5.14-4.09,8.18-6.57,17.14-6.39,26.18"/>
        <path class="cls-8" d="M447.44,92.05c-12.04.53-21.53-2.76-32.09-1.9-3.95.32-7.92,3.72-11.9,4.86-2.3.66-5.66.91-9.06,1.41-3.29.47-6.42.9-8.46,1.87-6.22,2.97-11.33,8.32-16.21,10.26-17.81,7.13-25.71,2.45-45.72,8.77-12.63,3.99-47.49,25.4-60.64,29.87-6.32,2.15-12.45,4.52-18.38,6.97-17.44,7.22-31.78,12.5-47.06,23.85-9.34,6.94-20.53,19.78-28.28,25.98-1.07.86-2.18,1.51-3.31,2.62-1.37,1.34-2.49,3.25-3.44,5.14-4.09,8.19-6.58,17.15-6.42,26.2"/>
        <path class="cls-8" d="M447.84,92.78c-12.1.54-21.62-2.81-32.26-1.91-3.95.33-7.92,3.85-11.89,5.01-2.3.67-5.68.91-9.11,1.38-3.32.45-6.48.87-8.51,1.85-6.2,3-11.3,8.48-16.21,10.43-17.89,7.18-25.88,2.26-45.98,8.55-12.66,3.96-47.31,25.35-60.48,29.87-6.3,2.16-12.42,4.53-18.34,6.97-17.44,7.18-31.73,12.18-47.02,23.49-9.33,6.91-20.58,19.91-28.33,25.97-1.07.84-2.19,1.46-3.32,2.56-1.38,1.33-2.51,3.24-3.45,5.13-4.1,8.2-6.59,17.17-6.46,26.23"/>
        <path class="cls-8" d="M448.25,93.5c-12.17.56-21.72-2.87-32.43-1.92-3.94.35-7.91,3.99-11.87,5.16-2.29.68-5.7.9-9.17,1.36-3.34.44-6.54.84-8.56,1.82-6.19,3.02-11.28,8.63-16.2,10.6-17.98,7.24-26.06,2.07-46.24,8.33-12.68,3.94-47.13,25.31-60.33,29.88-6.29,2.18-12.4,4.55-18.3,6.96-17.44,7.13-31.69,11.86-46.98,23.13-9.32,6.87-20.63,20.05-28.38,25.97-1.07.82-2.2,1.42-3.34,2.5-1.39,1.31-2.52,3.23-3.47,5.12-4.1,8.21-6.6,17.19-6.49,26.25"/>
        <path class="cls-8" d="M448.65,94.23c-12.23.57-21.82-2.92-32.6-1.93-3.94.36-7.91,4.13-11.85,5.31-2.28.69-5.73.89-9.22,1.34-3.37.42-6.59.81-8.61,1.8-6.17,3.05-11.26,8.79-16.2,10.76-18.06,7.3-26.23,1.88-46.5,8.11-12.71,3.91-46.95,25.26-60.17,29.89-6.27,2.19-12.37,4.56-18.26,6.96-17.44,7.09-31.64,11.54-46.94,22.77-9.31,6.83-20.67,20.19-28.43,25.96-1.08.8-2.21,1.37-3.36,2.45-1.4,1.3-2.54,3.22-3.48,5.11-4.1,8.22-6.61,17.2-6.52,26.28"/>
        <path class="cls-8" d="M449.05,94.96c-12.3.58-21.92-2.98-32.77-1.94-3.94.38-7.9,4.26-11.84,5.46-2.28.69-5.75.89-9.27,1.31-3.4.4-6.65.78-8.66,1.78-6.16,3.07-11.24,8.94-16.19,10.93-18.14,7.36-26.4,1.69-46.76,7.9-12.74,3.89-46.77,25.21-60.02,29.9-6.26,2.21-12.34,4.57-18.22,6.95-17.44,7.04-31.59,11.22-46.9,22.4-9.3,6.79-20.72,20.33-28.48,25.95-1.08.78-2.21,1.33-3.37,2.39-1.41,1.29-2.55,3.21-3.49,5.11-4.1,8.23-6.62,17.22-6.56,26.3"/>
        <path class="cls-8" d="M449.45,95.68c-12.36.59-22.02-3.03-32.94-1.95-3.93.39-7.9,4.4-11.82,5.61-2.27.7-5.77.88-9.32,1.29-3.43.39-6.7.75-8.7,1.75-6.14,3.1-11.22,9.09-16.19,11.1-18.22,7.42-26.58,1.49-47.02,7.68-12.76,3.86-46.59,25.17-59.87,29.9-6.24,2.23-12.31,4.59-18.18,6.95-17.44,7-31.54,10.9-46.86,22.04-9.28,6.75-20.78,20.46-28.53,25.94-1.09.77-2.22,1.28-3.39,2.33-1.42,1.27-2.57,3.21-3.51,5.1-4.11,8.24-6.63,17.23-6.59,26.33"/>
        <path class="cls-8" d="M449.86,96.41c-12.43.6-22.11-3.09-33.11-1.95-3.93.41-7.89,4.54-11.81,5.77-2.27.71-5.8.87-9.37,1.27-3.45.37-6.76.72-8.75,1.73-6.13,3.12-11.2,9.25-16.19,11.26-18.31,7.48-26.75,1.3-47.28,7.46-12.79,3.84-46.41,25.12-59.71,29.91-6.22,2.24-12.29,4.6-18.14,6.94-17.44,6.95-31.49,10.58-46.82,21.68-9.27,6.71-20.83,20.6-28.59,25.93-1.09.75-2.23,1.23-3.41,2.27-1.43,1.26-2.58,3.2-3.52,5.09-4.11,8.25-6.64,17.25-6.62,26.35"/>
        <path class="cls-8" d="M450.26,97.14c-12.5.61-22.21-3.14-33.28-1.96-3.93.42-7.88,4.67-11.79,5.92-2.26.72-5.82.87-9.42,1.24-3.48.36-6.82.69-8.8,1.71-6.11,3.15-11.18,9.4-16.18,11.43-18.39,7.54-26.92,1.11-47.55,7.24-12.82,3.81-46.22,25.07-59.56,29.92-6.21,2.26-12.26,4.62-18.11,6.93-17.44,6.91-31.45,10.26-46.78,21.32-9.26,6.67-20.88,20.74-28.64,25.93-1.09.73-2.24,1.19-3.43,2.22-1.44,1.24-2.59,3.19-3.54,5.09-4.11,8.26-6.65,17.27-6.65,26.38"/>
        <path class="cls-8" d="M450.66,97.86c-12.56.62-22.31-3.2-33.45-1.97-3.92.43-7.88,4.81-11.78,6.07-2.25.73-5.84.86-9.47,1.22-3.51.34-6.87.65-8.85,1.68-6.1,3.17-11.16,9.55-16.18,11.6-18.47,7.6-27.1.92-47.81,7.02-12.84,3.79-46.04,25.03-59.4,29.93-6.19,2.27-12.23,4.63-18.07,6.93-17.44,6.86-31.4,9.94-46.74,20.95-9.25,6.64-20.93,20.88-28.69,25.92-1.1.71-2.25,1.14-3.44,2.16-1.45,1.23-2.61,3.18-3.55,5.08-4.11,8.27-6.66,17.28-6.69,26.4"/>
        <path class="cls-8" d="M451.06,98.59c-12.63.63-22.41-3.26-33.62-1.98-3.92.45-7.87,4.95-11.76,6.22-2.25.73-5.87.85-9.53,1.2-3.54.33-6.93.62-8.9,1.66-6.08,3.2-11.14,9.71-16.17,11.76-18.55,7.66-27.27.73-48.07,6.81-12.87,3.76-45.86,24.98-59.25,29.94-6.18,2.29-12.2,4.65-18.03,6.92-17.43,6.82-31.35,9.62-46.7,20.59-9.23,6.6-20.99,21.01-28.74,25.91-1.1.7-2.26,1.1-3.46,2.1-1.46,1.21-2.62,3.17-3.57,5.07-4.12,8.28-6.67,17.3-6.72,26.43"/>
        <path class="cls-8" d="M451.46,99.32c-12.69.65-22.51-3.31-33.79-1.99-3.92.46-7.87,5.09-11.75,6.37-2.24.74-5.89.85-9.58,1.17-3.57.31-6.98.59-8.95,1.64-6.07,3.22-11.12,9.86-16.17,11.93-18.64,7.72-27.44.54-48.33,6.59-12.9,3.74-45.68,24.93-59.1,29.94-6.16,2.3-12.17,4.66-17.99,6.92-17.43,6.77-31.3,9.3-46.66,20.23-9.22,6.56-21.04,21.15-28.79,25.9-1.11.68-2.26,1.05-3.48,2.04-1.47,1.2-2.64,3.16-3.58,5.06-4.12,8.29-6.68,17.32-6.75,26.45"/>
        <path class="cls-8" d="M451.87,100.04c-12.76.66-22.61-3.37-33.96-2-3.91.47-7.86,5.22-11.73,6.52-2.23.75-5.91.84-9.63,1.15-3.59.29-7.04.56-9,1.61-6.05,3.25-11.09,10.01-16.16,12.1-18.72,7.77-27.61.35-48.59,6.37-12.92,3.71-45.5,24.89-58.94,29.95-6.15,2.32-12.15,4.67-17.95,6.91-17.43,6.73-31.25,8.98-46.62,19.86-9.21,6.52-21.09,21.29-28.84,25.89-1.11.66-2.27,1.01-3.49,1.99-1.48,1.19-2.65,3.15-3.6,5.06-4.12,8.3-6.69,17.33-6.79,26.48"/>
        <path class="cls-8" d="M452.27,100.77c-12.82.67-22.7-3.43-34.14-2-3.91.49-7.86,5.36-11.71,6.67-2.23.76-5.94.83-9.68,1.13-3.62.28-7.1.53-9.05,1.59-6.04,3.27-11.07,10.17-16.16,12.26-18.8,7.83-27.79.16-48.85,6.15-12.95,3.69-45.32,24.84-58.79,29.96-6.13,2.33-12.12,4.69-17.91,6.91-17.43,6.68-31.2,8.66-46.58,19.5-9.2,6.48-21.15,21.42-28.9,25.89-1.12.64-2.28.96-3.51,1.93-1.49,1.17-2.66,3.14-3.61,5.05-4.12,8.31-6.7,17.35-6.82,26.5"/>
        <path class="cls-8" d="M452.67,101.5c-12.89.68-22.8-3.49-34.31-2.01-3.91.5-7.85,5.5-11.7,6.82-2.22.76-5.96.82-9.73,1.1-3.65.26-7.15.5-9.1,1.57-6.02,3.29-11.05,10.32-16.15,12.43-18.88,7.89-27.96-.03-49.11,5.93-12.97,3.66-45.14,24.79-58.63,29.97-6.11,2.34-12.09,4.7-17.87,6.9-17.43,6.64-31.16,8.34-46.54,19.14-9.18,6.44-21.21,21.56-28.95,25.88-1.12.63-2.29.92-3.53,1.87-1.5,1.16-2.68,3.13-3.63,5.04-4.13,8.32-6.71,17.37-6.85,26.53"/>
        <path class="cls-8" d="M453.07,102.22c-12.95.69-22.9-3.54-34.48-2.02-3.9.51-7.84,5.63-11.68,6.97-2.21.77-5.98.82-9.78,1.08-3.68.25-7.21.47-9.15,1.54-6.01,3.32-11.03,10.48-16.15,12.6-18.97,7.95-28.13-.22-49.37,5.72-13,3.64-44.96,24.74-58.48,29.97-6.1,2.36-12.06,4.72-17.83,6.9-17.43,6.59-31.11,8.02-46.5,18.78-9.17,6.41-21.26,21.69-29,25.87-1.13.61-2.3.87-3.54,1.81-1.51,1.14-2.69,3.12-3.64,5.04-4.13,8.33-6.72,17.38-6.88,26.55"/>
        <path class="cls-8" d="M453.48,102.95c-13.02.7-23-3.6-34.65-2.03-3.9.53-7.84,5.77-11.67,7.13-2.21.78-6.01.81-9.83,1.06-3.7.23-7.26.44-9.2,1.52-5.99,3.34-11.01,10.63-16.14,12.77-19.05,8.01-28.31-.42-49.63,5.5-13.03,3.61-44.78,24.69-58.32,29.98-6.08,2.37-12.04,4.73-17.8,6.89-17.43,6.55-31.06,7.7-46.47,18.41-9.16,6.37-21.32,21.83-29.05,25.86-1.13.59-2.31.82-3.56,1.76-1.52,1.13-2.71,3.11-3.66,5.03-4.13,8.33-6.73,17.4-6.92,26.58"/>
        <path class="cls-8" d="M453.88,103.68c-13.08.71-23.1-3.66-34.82-2.04-3.9.54-7.83,5.91-11.65,7.28-2.2.79-6.03.8-9.88,1.04-3.73.22-7.32.41-9.25,1.5-5.98,3.37-10.99,10.78-16.14,12.93-19.13,8.07-28.48-.61-49.89,5.28-13.05,3.59-44.6,24.65-58.17,29.99-6.07,2.39-12.01,4.75-17.76,6.89-17.43,6.5-31.01,7.38-46.43,18.05-9.15,6.33-21.38,21.96-29.1,25.85-1.14.57-2.31.78-3.58,1.7-1.53,1.11-2.72,3.1-3.67,5.02-4.13,8.34-6.74,17.42-6.95,26.6"/>
        <path class="cls-8" d="M454.28,104.4c-13.15.72-23.19-3.72-34.99-2.05-3.89.55-7.83,6.04-11.64,7.43-2.19.8-6.05.8-9.94,1.01-3.76.2-7.38.38-9.3,1.48-5.96,3.39-10.97,10.94-16.13,13.1-19.21,8.13-28.65-.8-50.15,5.06-13.08,3.56-44.42,24.6-58.02,30-6.05,2.4-11.98,4.76-17.72,6.88-17.43,6.46-30.96,7.06-46.39,17.69-9.13,6.29-21.44,22.1-29.15,25.85-1.14.55-2.32.73-3.59,1.64-1.54,1.1-2.74,3.09-3.69,5.01-4.14,8.35-6.75,17.43-6.98,26.63"/>
        <path class="cls-8" d="M454.68,105.13c-13.21.73-23.29-3.78-35.16-2.06-3.89.56-7.82,6.18-11.62,7.58-2.19.8-6.08.79-9.99.99-3.79.18-7.43.35-9.34,1.45-5.95,3.42-10.95,11.09-16.13,13.27-19.3,8.19-28.82-.99-50.41,4.85-13.11,3.54-44.23,24.55-57.86,30-6.04,2.42-11.95,4.77-17.68,6.88-17.43,6.41-30.91,6.75-46.35,17.32-9.12,6.25-21.5,22.23-29.21,25.84-1.15.54-2.33.69-3.61,1.58-1.55,1.09-2.75,3.08-3.7,5.01-4.14,8.36-6.76,17.45-7.01,26.65"/>
        <path class="cls-8" d="M455.08,105.86c-13.28.75-23.39-3.84-35.33-2.06-3.89.58-7.82,6.32-11.61,7.73-2.18.81-6.1.78-10.04.97-3.81.17-7.49.32-9.39,1.43-5.93,3.44-10.93,11.24-16.13,13.43-19.38,8.25-29-1.18-50.67,4.63-13.13,3.52-44.05,24.5-57.71,30.01-6.02,2.43-11.93,4.79-17.64,6.87-17.43,6.37-30.86,6.43-46.31,16.96-9.11,6.21-21.56,22.37-29.26,25.83-1.15.52-2.34.64-3.63,1.53-1.56,1.07-2.76,3.07-3.72,5-4.14,8.37-6.77,17.46-7.05,26.68"/>
        <path class="cls-8" d="M455.49,106.58c-13.34.76-23.49-3.9-35.5-2.07-3.88.59-7.81,6.45-11.59,7.88-2.17.82-6.12.78-10.09.94-3.84.15-7.54.29-9.44,1.41-5.92,3.47-10.91,11.4-16.12,13.6-19.46,8.31-29.17-1.37-50.94,4.41-13.16,3.49-43.87,24.45-57.55,30.02-6.01,2.44-11.9,4.8-17.6,6.87-17.43,6.32-30.82,6.11-46.27,16.6-9.1,6.18-21.63,22.5-29.31,25.82-1.16.5-2.35.6-3.64,1.47-1.57,1.06-2.78,3.06-3.73,4.99-4.15,8.38-6.78,17.48-7.08,26.7"/>
        <path class="cls-8" d="M455.89,107.31c-13.41.77-23.59-3.96-35.67-2.08-3.88.6-7.8,6.59-11.57,8.03-2.17.83-6.15.77-10.14.92-3.87.14-7.6.26-9.49,1.38-5.9,3.49-10.88,11.55-16.12,13.77-19.54,8.37-29.34-1.56-51.2,4.19-13.18,3.47-43.69,24.4-57.4,30.03-5.99,2.46-11.87,4.82-17.56,6.86-17.43,6.27-30.77,5.79-46.23,16.24-9.08,6.14-21.69,22.63-29.36,25.82-1.16.48-2.36.55-3.66,1.41-1.58,1.04-2.79,3.05-3.75,4.99-4.15,8.39-6.79,17.5-7.11,26.73"/>
        <path class="cls-8" d="M456.29,108.04c-13.48.78-23.69-4.02-35.84-2.09-3.88.61-7.8,6.73-11.56,8.18-2.16.84-6.17.76-10.19.9-3.9.12-7.66.23-9.54,1.36-5.89,3.52-10.86,11.7-16.11,13.93-19.63,8.42-29.52-1.75-51.46,3.97-13.21,3.44-43.51,24.35-57.25,30.03-5.98,2.47-11.84,4.83-17.52,6.86-17.43,6.23-30.72,5.47-46.19,15.87-9.07,6.1-21.75,22.76-29.41,25.81-1.17.46-2.36.51-3.68,1.36-1.59,1.03-2.81,3.04-3.76,4.98-4.15,8.4-6.8,17.51-7.15,26.75"/>
        <path class="cls-8" d="M456.69,108.76c-13.54.79-23.78-4.08-36.01-2.1-3.87.63-7.79,6.87-11.54,8.33-2.15.84-6.19.76-10.24.87-3.93.11-7.71.2-9.59,1.34-5.87,3.54-10.84,11.86-16.11,14.1-19.71,8.48-29.69-1.94-51.72,3.76-13.24,3.42-43.33,24.3-57.09,30.04-5.96,2.49-11.82,4.84-17.49,6.85-17.44,6.18-30.67,5.15-46.15,15.51-9.06,6.06-21.82,22.89-29.47,25.8-1.17.45-2.37.46-3.69,1.3-1.6,1.01-2.82,3.04-3.78,4.97-4.15,8.41-6.81,17.53-7.18,26.78"/>
        <path class="cls-8" d="M457.1,109.49c-13.61.8-23.88-4.14-36.18-2.11-3.87.64-7.79,7-11.53,8.49-2.15.85-6.22.75-10.3.85-3.95.09-7.77.17-9.64,1.31-5.86,3.57-10.82,12.01-16.1,14.27-19.79,8.54-29.86-2.13-51.98,3.54-13.26,3.4-43.15,24.25-56.94,30.05-5.94,2.5-11.79,4.86-17.45,6.85-17.44,6.14-30.62,4.83-46.11,15.15-9.05,6.02-21.88,23.02-29.52,25.79-1.18.43-2.38.41-3.71,1.24-1.61,1-2.84,3.03-3.79,4.96-4.16,8.42-6.82,17.55-7.21,26.8"/>
        <path class="cls-8" d="M457.5,110.22c-13.67.81-23.98-4.2-36.35-2.11-3.87.65-7.78,7.14-11.51,8.64-2.14.86-6.24.74-10.35.83-3.98.07-7.82.14-9.69,1.29-5.84,3.59-10.8,12.17-16.1,14.43-19.87,8.6-30.03-2.31-52.24,3.32-13.29,3.37-42.97,24.2-56.78,30.06-5.93,2.51-11.76,4.87-17.41,6.84-17.44,6.09-30.57,4.51-46.07,14.78-9.03,5.99-21.95,23.15-29.57,25.78-1.19.41-2.39.37-3.73,1.18-1.62.99-2.85,3.02-3.81,4.96-4.16,8.43-6.84,17.56-7.24,26.83"/>
        <path class="cls-8" d="M457.9,110.94c-13.74.82-24.08-4.26-36.52-2.12-3.86.66-7.78,7.28-11.5,8.79-2.13.87-6.26.73-10.4.8-4.01.06-7.88.11-9.74,1.27-5.83,3.62-10.78,12.32-16.09,14.6-19.96,8.66-30.21-2.5-52.5,3.1-13.31,3.35-42.79,24.15-56.63,30.06-5.91,2.53-11.73,4.88-17.37,6.84-17.44,6.04-30.52,4.19-46.03,14.42-9.02,5.95-22.01,23.28-29.62,25.78-1.19.39-2.4.32-3.74,1.13-1.63.97-2.86,3.01-3.82,4.95-4.16,8.44-6.85,17.58-7.28,26.86"/>
        <path class="cls-8" d="M458.3,111.67c-13.8.84-24.18-4.32-36.69-2.13-3.86.67-7.77,7.41-11.48,8.94-2.13.88-6.29.73-10.45.78-4.04.04-7.94.08-9.79,1.24-5.81,3.65-10.76,12.47-16.09,14.77-20.04,8.72-30.38-2.69-52.76,2.88-13.34,3.32-42.61,24.1-56.47,30.07-5.9,2.54-11.71,4.9-17.33,6.83-17.44,6-30.47,3.87-45.99,14.06-9.01,5.91-22.08,23.41-29.67,25.77-1.2.37-2.41.28-3.76,1.07-1.64.96-2.88,3-3.84,4.94-4.16,8.45-6.86,17.6-7.31,26.88"/>
        <path class="cls-8" d="M458.71,112.4c-13.87.85-24.28-4.38-36.87-2.14-3.86.69-7.76,7.55-11.47,9.09-2.12.88-6.31.72-10.5.76-4.06.03-7.99.05-9.84,1.22-5.8,3.67-10.74,12.63-16.08,14.94-20.12,8.78-30.55-2.88-53.02,2.67-13.37,3.3-42.43,24.05-56.32,30.08-5.88,2.55-11.68,4.91-17.29,6.83-17.44,5.95-30.42,3.56-45.95,13.7-8.99,5.87-22.15,23.53-29.72,25.76-1.21.35-2.41.23-3.78,1.01-1.65.94-2.89,2.99-3.85,4.93-4.17,8.46-6.87,17.61-7.34,26.91"/>
        <path class="cls-8" d="M459.11,113.12c-13.93.86-24.38-4.44-37.04-2.15-3.85.7-7.76,7.69-11.45,9.24-2.11.89-6.33.71-10.55.73-4.09.01-8.05.02-9.89,1.2-5.78,3.7-10.72,12.78-16.08,15.1-20.2,8.84-30.72-3.07-53.28,2.45-13.39,3.28-42.25,24-56.17,30.09-5.87,2.57-11.65,4.93-17.25,6.82-17.44,5.9-30.37,3.24-45.91,13.33-8.98,5.84-22.21,23.66-29.78,25.75-1.21.34-2.42.19-3.79.95-1.66.93-2.91,2.98-3.87,4.93-4.17,8.47-6.88,17.63-7.37,26.93"/>
        <path class="cls-8" d="M459.51,113.85c-14,.87-24.48-4.51-37.21-2.16-3.85.71-7.75,7.82-11.43,9.39-2.11.9-6.36.71-10.6.71-4.12,0-8.1,0-9.94,1.17-5.77,3.72-10.7,12.93-16.07,15.27-20.29,8.9-30.9-3.26-53.54,2.23-13.42,3.25-42.07,23.95-56.01,30.09-5.85,2.58-11.63,4.94-17.22,6.82-17.44,5.86-30.33,2.92-45.87,12.97-8.97,5.8-22.28,23.78-29.83,25.74-1.22.32-2.43.14-3.81.9-1.67.91-2.92,2.97-3.88,4.92-4.17,8.48-6.89,17.65-7.41,26.96"/>
        <path class="cls-8" d="M459.91,114.58c-14.06.88-24.57-4.57-37.38-2.17-3.85.72-7.75,7.96-11.42,9.54-2.1.91-6.38.7-10.65.69-4.15-.02-8.16-.04-9.98,1.15-5.75,3.75-10.67,13.09-16.07,15.44-20.37,8.96-31.07-3.45-53.8,2.01-13.44,3.23-41.89,23.9-55.86,30.1-5.84,2.59-11.6,4.95-17.18,6.81-17.44,5.81-30.28,2.6-45.83,12.61-8.95,5.76-22.35,23.91-29.88,25.74-1.22.3-2.44.09-3.83.84-1.68.9-2.93,2.96-3.9,4.91-4.17,8.48-6.9,17.66-7.44,26.98"/>
        <path class="cls-8" d="M460.31,115.3c-14.13.89-24.67-4.63-37.55-2.17-3.84.73-7.74,8.1-11.4,9.69-2.1.91-6.4.69-10.71.67-4.17-.04-8.22-.07-10.03,1.13-5.74,3.77-10.65,13.24-16.07,15.6-20.45,9.01-31.24-3.64-54.06,1.79-13.47,3.21-41.71,23.85-55.7,30.11-5.82,2.61-11.57,4.97-17.14,6.81-17.44,5.76-30.23,2.28-45.79,12.25-8.94,5.72-22.42,24.03-29.93,25.73-1.23.28-2.45.05-3.84.78-1.69.89-2.95,2.95-3.91,4.91-4.18,8.49-6.91,17.68-7.47,27.01"/>
        <path class="cls-8" d="M460.72,116.03c-14.19.9-24.77-4.69-37.72-2.18-3.84.74-7.74,8.23-11.39,9.85-2.09.92-6.43.69-10.76.64-4.2-.05-8.27-.1-10.08,1.1-5.72,3.8-10.63,13.39-16.06,15.77-20.53,9.07-31.41-3.83-54.33,1.58-13.5,3.18-41.53,23.8-55.55,30.12-5.81,2.62-11.54,4.98-17.1,6.8-17.44,5.72-30.18,1.96-45.75,11.88-8.93,5.69-22.49,24.15-29.98,25.72-1.24.26-2.46,0-3.86.72-1.7.87-2.96,2.94-3.93,4.9-4.18,8.5-6.92,17.7-7.51,27.03"/>
        <path class="cls-8" d="M461.12,116.76c-14.26.91-24.87-4.76-37.89-2.19-3.84.76-7.73,8.37-11.37,10-2.08.93-6.45.68-10.81.62-4.23-.07-8.33-.13-10.13,1.08-5.71,3.82-10.61,13.55-16.06,15.94-20.62,9.13-31.59-4.02-54.59,1.36-13.52,3.16-41.35,23.75-55.39,30.13-5.79,2.63-11.52,4.99-17.06,6.8-17.44,5.67-30.13,1.65-45.71,11.52-8.92,5.65-22.56,24.27-30.03,25.71-1.24.24-2.47-.04-3.88.67-1.71.86-2.98,2.93-3.94,4.89-4.18,8.51-6.93,17.71-7.54,27.06"/>
        <path class="cls-8" d="M461.52,117.48c-14.32.93-24.97-4.82-38.06-2.2-3.84.77-7.72,8.51-11.36,10.15-2.08.94-6.47.67-10.86.6-4.26-.08-8.38-.16-10.18,1.06-5.69,3.85-10.59,13.7-16.05,16.1-20.7,9.19-31.76-4.2-54.85,1.14-13.55,3.14-41.17,23.7-55.24,30.13-5.78,2.64-11.49,5.01-17.02,6.79-17.44,5.62-30.08,1.33-45.67,11.16-8.9,5.61-22.63,24.39-30.09,25.7-1.25.22-2.47-.09-3.89.61-1.72.84-2.99,2.92-3.95,4.88-4.18,8.52-6.94,17.73-7.57,27.08"/>
        <path class="cls-8" d="M461.92,118.21c-14.39.94-25.07-4.88-38.23-2.21-3.83.78-7.72,8.64-11.34,10.3-2.07.95-6.5.67-10.91.57-4.28-.1-8.44-.19-10.23,1.03-5.68,3.87-10.57,13.86-16.05,16.27-20.78,9.25-31.93-4.39-55.11.92-13.57,3.11-40.99,23.64-55.09,30.14-5.76,2.66-11.46,5.02-16.98,6.79-17.44,5.58-30.03,1.01-45.64,10.79-8.89,5.57-22.7,24.51-30.14,25.7-1.26.2-2.48-.13-3.91.55-1.73.83-3.01,2.91-3.97,4.88-4.19,8.53-6.95,17.74-7.6,27.11"/>
        <path class="cls-8" d="M462.33,118.94c-14.46.95-25.17-4.95-38.4-2.22-3.83.79-7.71,8.78-11.33,10.45-2.06.95-6.52.66-10.96.55-4.31-.11-8.49-.22-10.28,1.01-5.66,3.9-10.55,14.01-16.04,16.44-20.87,9.31-32.1-4.58-55.37.7-13.6,3.09-40.81,23.59-54.93,30.15-5.75,2.67-11.43,5.03-16.94,6.78-17.44,5.53-29.98.69-45.6,10.43-8.88,5.54-22.77,24.63-30.19,25.69-1.26.18-2.49-.18-3.93.49-1.74.81-3.02,2.9-3.98,4.87-4.19,8.54-6.96,17.76-7.64,27.13"/>
        <path class="cls-8" d="M462.73,119.66c-14.52.96-25.27-5.01-38.57-2.22-3.83.8-7.71,8.92-11.31,10.6-2.06.96-6.54.65-11.01.53-4.34-.13-8.55-.25-10.33.99-5.64,3.92-10.53,14.16-16.04,16.6-20.95,9.37-32.28-4.77-55.63.49-13.63,3.07-40.64,23.54-54.78,30.16-5.73,2.68-11.41,5.05-16.91,6.78-17.44,5.48-29.93.37-45.56,10.07-8.86,5.5-22.84,24.75-30.24,25.68-1.27.16-2.5-.22-3.94.44-1.75.8-3.03,2.89-4,4.86-4.19,8.55-6.97,17.78-7.67,27.16"/>
        <path class="cls-8" d="M463.13,120.39c-14.59.97-25.37-5.08-38.74-2.23-3.82.81-7.7,9.05-11.29,10.75-2.05.97-6.57.64-11.07.5-4.37-.14-8.61-.28-10.38.96-5.63,3.95-10.51,14.32-16.03,16.77-21.03,9.43-32.45-4.96-55.89.27-13.65,3.04-40.46,23.49-54.62,30.16-5.72,2.69-11.38,5.06-16.87,6.77-17.44,5.44-29.88.06-45.52,9.71-8.85,5.46-22.91,24.86-30.29,25.67-1.28.14-2.51-.27-3.96.38-1.76.79-3.05,2.88-4.01,4.86-4.19,8.56-6.98,17.79-7.7,27.18"/>
        <path class="cls-8" d="M463.53,121.12c-14.65.98-25.47-5.14-38.91-2.24-3.82.82-7.7,9.19-11.28,10.9-2.04.98-6.59.64-11.12.48-4.4-.16-8.66-.31-10.43.94-5.61,3.98-10.49,14.47-16.03,16.94-21.11,9.49-32.62-5.15-56.15.05-13.68,3.02-40.28,23.43-54.47,30.17-5.7,2.71-11.35,5.07-16.83,6.77-17.44,5.39-29.83-.26-45.48,9.34-8.84,5.42-22.98,24.98-30.34,25.66-1.29.12-2.52-.32-3.98.32-1.77.77-3.06,2.87-4.03,4.85-4.2,8.57-6.99,17.81-7.74,27.21"/>
        <path class="cls-8" d="M463.93,121.84c-14.72.99-25.57-5.21-39.08-2.25-3.82.83-7.69,9.33-11.26,11.05-2.04.98-6.61.63-11.17.46-4.42-.18-8.72-.34-10.48.92-5.6,4-10.46,14.62-16.02,17.11-21.2,9.55-32.79-5.33-56.41-.17-13.7,3-40.1,23.38-54.32,30.18-5.69,2.72-11.32,5.09-16.79,6.76-17.45,5.34-29.78-.58-45.44,8.98-8.82,5.39-23.05,25.09-30.4,25.66-1.29.1-2.52-.36-3.99.26-1.78.76-3.08,2.87-4.04,4.84-4.2,8.58-7,17.83-7.77,27.23"/>
        <path class="cls-8" d="M464.34,122.57c-14.78,1-25.67-5.27-39.25-2.26-3.81.85-7.68,9.46-11.25,11.21-2.03.99-6.64.62-11.22.43-4.45-.19-8.77-.37-10.53.89-5.58,4.03-10.44,14.78-16.02,17.27-21.28,9.6-32.96-5.52-56.67-.39-13.73,2.97-39.92,23.33-54.16,30.19-5.67,2.73-11.3,5.1-16.75,6.76-17.45,5.29-29.73-.9-45.4,8.62-8.81,5.35-23.12,25.21-30.45,25.65-1.3.08-2.53-.41-4.01.21-1.79.74-3.09,2.86-4.06,4.83-4.2,8.59-7.01,17.84-7.8,27.26"/>
        <path class="cls-8" d="M464.74,123.3c-14.85,1.02-25.77-5.34-39.42-2.27-3.81.86-7.68,9.6-11.23,11.36-2.02,1-6.66.62-11.27.41-4.48-.21-8.83-.4-10.58.87-5.57,4.05-10.42,14.93-16.01,17.44-21.36,9.66-33.14-5.71-56.93-.6-13.76,2.95-39.74,23.28-54.01,30.19-5.66,2.74-11.27,5.11-16.71,6.75-17.45,5.25-29.68-1.22-45.36,8.25-8.8,5.31-23.19,25.32-30.5,25.64-1.31.06-2.54-.45-4.03.15-1.8.73-3.11,2.85-4.07,4.83-4.2,8.6-7.02,17.86-7.83,27.28"/>
        <path class="cls-8" d="M465.14,124.02c-14.91,1.03-25.87-5.4-39.6-2.28-3.81.87-7.67,9.74-11.22,11.51-2.02,1.01-6.68.61-11.32.39-4.51-.22-8.89-.43-10.63.85-5.55,4.08-10.4,15.08-16.01,17.61-21.44,9.72-33.31-5.9-57.19-.82-13.78,2.93-39.56,23.22-53.85,30.2-5.64,2.76-11.24,5.13-16.67,6.75-17.45,5.2-29.63-1.53-45.32,7.89-8.78,5.28-23.27,25.43-30.55,25.63-1.31.04-2.55-.5-4.04.09-1.81.71-3.12,2.84-4.09,4.82-4.21,8.61-7.03,17.88-7.87,27.31"/>
        <path class="cls-8" d="M465.54,124.75c-14.98,1.04-25.97-5.47-39.77-2.28-3.81.88-7.67,9.87-11.2,11.66-2.01,1.02-6.71.6-11.37.36-4.53-.24-8.94-.46-10.67.82-5.54,4.1-10.38,15.24-16.01,17.77-21.53,9.78-33.48-6.08-57.46-1.04-13.81,2.91-39.38,23.17-53.7,30.21-5.63,2.77-11.22,5.14-16.63,6.74-17.45,5.15-29.58-1.85-45.28,7.53-8.77,5.24-23.34,25.54-30.6,25.62-1.32.01-2.56-.54-4.06.04-1.82.7-3.13,2.83-4.1,4.81-4.21,8.62-7.04,17.89-7.9,27.33"/>
        <path class="cls-8" d="M465.95,125.48c-15.04,1.05-26.07-5.53-39.94-2.29-3.8.89-7.66,10.01-11.19,11.81-2,1.02-6.73.6-11.42.34-4.56-.25-9-.49-10.72.8-5.52,4.13-10.36,15.39-16,17.94-21.61,9.84-33.65-6.27-57.72-1.26-13.83,2.88-39.21,23.12-53.54,30.22-5.62,2.78-11.19,5.15-16.6,6.74-17.45,5.1-29.53-2.17-45.24,7.17-8.76,5.2-23.41,25.65-30.65,25.62-1.33,0-2.57-.59-4.08-.02-1.83.69-3.15,2.82-4.12,4.8-4.21,8.63-7.05,17.91-7.93,27.36"/>
        <path class="cls-8" d="M466.35,126.21c-15.11,1.06-26.17-5.6-40.11-2.3-3.8.9-7.66,10.15-11.17,11.96-2,1.03-6.75.59-11.48.32-4.59-.27-9.05-.52-10.77.78-5.51,4.15-10.34,15.54-16,18.11-21.69,9.9-33.83-6.46-57.98-1.48-13.86,2.86-39.03,23.06-53.39,30.22-5.6,2.79-11.16,5.17-16.56,6.73-17.45,5.05-29.48-2.48-45.2,6.8-8.74,5.17-23.48,25.76-30.71,25.61-1.33-.03-2.57-.64-4.09-.08-1.84.67-3.16,2.81-4.13,4.8-4.21,8.64-7.06,17.93-7.96,27.38"/>
        <path class="cls-8" d="M466.75,126.93c-15.17,1.07-26.27-5.67-40.28-2.31-3.8.91-7.65,10.28-11.16,12.11-1.99,1.04-6.78.58-11.53.29-4.62-.29-9.11-.55-10.82.75-5.49,4.18-10.32,15.7-15.99,18.27-21.77,9.96-34-6.65-58.24-1.69-13.88,2.84-38.85,23.01-53.24,30.23-5.59,2.8-11.13,5.18-16.52,6.72-17.45,5.01-29.43-2.8-45.16,6.44-8.73,5.13-23.54,25.87-30.76,25.6-1.34-.05-2.58-.68-4.11-.14-1.85.66-3.18,2.8-4.15,4.79-4.22,8.64-7.07,17.94-8,27.41"/>
        <path class="cls-8" d="M467.15,127.66c-15.24,1.08-26.37-5.73-40.45-2.32-3.79.92-7.64,10.42-11.14,12.26-1.98,1.05-6.8.58-11.58.27-4.64-.3-9.17-.58-10.87.73-5.48,4.21-10.3,15.85-15.99,18.44-21.86,10.02-34.17-6.83-58.5-1.91-13.91,2.81-38.67,22.95-53.08,30.24-5.57,2.82-11.11,5.19-16.48,6.72-17.45,4.96-29.38-3.12-45.12,6.08-8.71,5.09-23.61,25.98-30.81,25.59-1.35-.07-2.59-.73-4.13-.19-1.86.64-3.19,2.79-4.16,4.78-4.22,8.65-7.08,17.96-8.03,27.43"/>
        <path class="cls-8" d="M467.55,128.39c-15.3,1.09-26.47-5.8-40.62-2.33-3.79.93-7.64,10.56-11.12,12.41-1.98,1.05-6.82.57-11.63.25-4.67-.32-9.22-.61-10.92.71-5.46,4.23-10.28,16.01-15.98,18.61-21.94,10.08-34.34-7.02-58.76-2.13-13.94,2.79-38.49,22.9-52.93,30.25-5.56,2.83-11.08,5.21-16.44,6.71-17.45,4.91-29.33-3.44-45.08,5.71-8.7,5.05-23.68,26.09-30.86,25.58-1.35-.09-2.6-.77-4.14-.25-1.87.63-3.21,2.78-4.18,4.78-4.22,8.66-7.09,17.97-8.06,27.46"/>
        <path class="cls-8" d="M467.96,129.11c-15.37,1.1-26.57-5.87-40.79-2.33-3.79.94-7.63,10.69-11.11,12.57-1.97,1.06-6.85.56-11.68.23-4.7-.33-9.28-.64-10.97.68-5.44,4.26-10.25,16.16-15.98,18.77-22.02,10.14-34.51-7.21-59.02-2.35-13.96,2.77-38.31,22.85-52.77,30.25-5.54,2.84-11.05,5.22-16.4,6.71-17.45,4.86-29.28-3.75-45.04,5.35-8.69,5.02-23.75,26.19-30.91,25.58-1.36-.12-2.61-.82-4.16-.31-1.88.62-3.22,2.77-4.19,4.77-4.22,8.67-7.1,17.99-8.1,27.48"/>
        <path class="cls-8" d="M468.36,129.84c-15.44,1.12-26.67-5.94-40.96-2.34-3.79.95-7.63,10.83-11.09,12.72-1.97,1.07-6.87.55-11.73.2-4.73-.35-9.33-.67-11.02.66-5.43,4.28-10.23,16.31-15.97,18.94-22.1,10.19-34.69-7.4-59.28-2.57-13.99,2.75-38.14,22.79-52.62,30.26-5.53,2.85-11.03,5.23-16.36,6.7-17.46,4.81-29.23-4.07-45,4.99-8.67,4.98-23.82,26.3-30.96,25.57-1.37-.14-2.62-.86-4.18-.37-1.89.6-3.23,2.76-4.21,4.76-4.23,8.68-7.11,18.01-8.13,27.51"/>
        <path class="cls-8" d="M468.76,130.57c-15.5,1.13-26.77-6.01-41.13-2.35-3.78.96-7.62,10.97-11.08,12.87-1.96,1.08-6.89.55-11.78.18-4.76-.36-9.39-.7-11.07.64-5.41,4.31-10.21,16.47-15.97,19.11-22.19,10.25-34.86-7.58-59.54-2.78-14.01,2.72-37.96,22.74-52.47,30.27-5.51,2.86-11,5.25-16.33,6.7-17.46,4.76-29.18-4.39-44.96,4.63-8.66,4.94-23.89,26.4-31.02,25.56-1.37-.16-2.62-.91-4.19-.42-1.9.59-3.25,2.75-4.22,4.75-4.23,8.69-7.12,18.02-8.16,27.53"/>
        <path class="cls-8" d="M469.16,131.29c-15.57,1.14-26.87-6.07-41.3-2.36-3.78.97-7.62,11.1-11.06,13.02-1.95,1.09-6.92.54-11.84.16-4.78-.38-9.44-.73-11.12.61-5.4,4.34-10.19,16.62-15.96,19.27-22.27,10.31-35.03-7.77-59.8-3-14.04,2.7-37.78,22.68-52.31,30.28-5.5,2.88-10.97,5.26-16.29,6.69-17.46,4.71-29.13-4.7-44.92,4.26-8.65,4.91-23.95,26.51-31.07,25.55-1.38-.18-2.63-.95-4.21-.48-1.91.57-3.26,2.74-4.24,4.75-4.23,8.7-7.13,18.04-8.19,27.56"/>
        <path class="cls-8" d="M469.57,132.02c-15.63,1.15-26.97-6.14-41.47-2.37-3.78.98-7.61,11.24-11.05,13.17-1.95,1.09-6.94.53-11.89.13-4.81-.4-9.5-.76-11.17.59-5.38,4.36-10.17,16.77-15.96,19.44-22.35,10.37-35.2-7.96-60.06-3.22-14.07,2.68-37.6,22.63-52.16,30.28-5.49,2.89-10.94,5.27-16.25,6.69-17.46,4.67-29.08-5.02-44.88,3.9-8.63,4.87-24.02,26.61-31.12,25.54-1.38-.21-2.64-1-4.23-.54-1.92.56-3.28,2.73-4.25,4.74-4.23,8.71-7.14,18.06-8.23,27.58"/>
        <path class="cls-8" d="M469.97,132.75c-15.7,1.16-27.07-6.21-41.64-2.38-3.78.99-7.6,11.38-11.03,13.32-1.94,1.1-6.96.53-11.94.11-4.84-.41-9.56-.79-11.22.57-5.37,4.39-10.15,16.93-15.95,19.61-22.43,10.43-35.37-8.14-60.32-3.44-14.09,2.66-37.43,22.57-52,30.29-5.47,2.9-10.92,5.28-16.21,6.68-17.46,4.62-29.03-5.34-44.84,3.54-8.62,4.84-24.08,26.71-31.17,25.54-1.39-.23-2.65-1.05-4.24-.6-1.93.54-3.29,2.72-4.27,4.73-4.24,8.72-7.15,18.07-8.26,27.61"/>
        <path class="cls-8" d="M470.37,133.47c-15.76,1.17-27.17-6.28-41.81-2.39-3.77,1-7.6,11.51-11.02,13.47-1.93,1.11-6.99.52-11.99.09-4.87-.43-9.61-.82-11.27.54-5.35,4.41-10.13,17.08-15.95,19.78-22.52,10.49-35.55-8.33-60.58-3.65-14.12,2.64-37.25,22.52-51.85,30.3-5.46,2.91-10.89,5.3-16.17,6.68-17.46,4.57-28.98-5.65-44.8,3.18-8.61,4.8-24.15,26.82-31.22,25.53-1.4-.25-2.66-1.09-4.26-.65-1.94.53-3.3,2.71-4.28,4.73-4.24,8.73-7.16,18.09-8.29,27.64"/>
        <path class="cls-8" d="M470.77,134.2c-15.83,1.18-27.27-6.35-41.98-2.39-3.77,1.01-7.59,11.65-11,13.62-1.93,1.12-7.01.51-12.04.06-4.89-.44-9.67-.85-11.31.52-5.33,4.44-10.11,17.23-15.95,19.94-22.6,10.55-35.72-8.52-60.85-3.87-14.14,2.61-37.07,22.46-51.69,30.31-5.44,2.92-10.86,5.31-16.13,6.67-17.46,4.52-28.93-5.97-44.77,2.81-8.59,4.76-24.21,26.92-31.28,25.52-1.4-.28-2.67-1.14-4.28-.71-1.95.52-3.32,2.7-4.3,4.72-4.24,8.74-7.17,18.11-8.33,27.66"/>
        <path class="cls-8" d="M471.18,134.93c-15.89,1.19-27.37-6.42-42.15-2.4-3.77,1.02-7.59,11.79-10.98,13.78-1.92,1.12-7.03.51-12.09.04-4.92-.46-9.72-.88-11.36.5-5.32,4.46-10.09,17.39-15.94,20.11-22.68,10.61-35.89-8.7-61.11-4.09-14.17,2.59-36.9,22.4-51.54,30.32-5.43,2.93-10.84,5.32-16.09,6.67-17.46,4.47-28.88-6.28-44.73,2.45-8.58,4.73-24.28,27.02-31.33,25.51-1.41-.3-2.67-1.18-4.29-.77-1.96.5-3.33,2.7-4.31,4.71-4.24,8.75-7.18,18.12-8.36,27.69"/>
        <path class="cls-8" d="M471.58,135.65c-15.96,1.21-27.48-6.49-42.33-2.41-3.77,1.03-7.58,11.92-10.97,13.93-1.91,1.13-7.06.5-12.14.02-4.95-.47-9.78-.91-11.41.47-5.3,4.49-10.07,17.54-15.94,20.28-22.76,10.67-36.06-8.89-61.37-4.31-14.19,2.57-36.72,22.35-51.39,30.32-5.42,2.94-10.81,5.34-16.05,6.66-17.47,4.42-28.82-6.6-44.69,2.09-8.56,4.69-24.34,27.12-31.38,25.51-1.41-.32-2.68-1.23-4.31-.83-1.97.49-3.35,2.69-4.33,4.7-4.25,8.76-7.19,18.14-8.39,27.71"/>
        <path class="cls-8" d="M471.98,136.38c-16.02,1.22-27.58-6.56-42.5-2.42-3.76,1.04-7.58,12.06-10.95,14.08-1.91,1.14-7.08.49-12.2,0-4.98-.49-9.83-.94-11.46.45-5.29,4.52-10.04,17.7-15.93,20.44-22.85,10.73-36.24-9.07-61.63-4.53-14.22,2.55-36.54,22.29-51.23,30.33-5.4,2.96-10.78,5.35-16.02,6.66-17.47,4.37-28.77-6.92-44.65,1.72-8.55,4.65-24.4,27.22-31.43,25.5-1.42-.35-2.69-1.27-4.33-.88-1.98.47-3.36,2.68-4.34,4.7-4.25,8.77-7.2,18.16-8.42,27.74"/>
        <path class="cls-8" d="M472.38,137.11c-16.09,1.23-27.68-6.63-42.67-2.43-3.76,1.05-7.57,12.2-10.94,14.23-1.9,1.15-7.1.49-12.25-.03-5-.51-9.89-.97-11.51.43-5.27,4.54-10.02,17.85-15.93,20.61-22.93,10.78-36.41-9.26-61.89-4.74-14.25,2.52-36.37,22.24-51.08,30.34-5.39,2.97-10.75,5.36-15.98,6.65-17.47,4.32-28.72-7.23-44.61,1.36-8.54,4.62-24.46,27.32-31.48,25.49-1.42-.37-2.7-1.32-4.34-.94-1.99.46-3.38,2.67-4.36,4.69-4.25,8.78-7.21,18.17-8.46,27.76"/>
        <path class="cls-8" d="M472.78,137.83c-16.15,1.24-27.78-6.7-42.84-2.44-3.76,1.06-7.57,12.33-10.92,14.38-1.89,1.16-7.13.48-12.3-.05-5.03-.52-9.95-1-11.56.4-5.26,4.57-10,18-15.92,20.78-23.01,10.84-36.58-9.45-62.15-4.96-14.27,2.5-36.19,22.18-50.92,30.35-5.37,2.98-10.73,5.37-15.94,6.65-17.47,4.27-28.67-7.55-44.57,1-8.52,4.58-24.52,27.42-31.53,25.48-1.43-.4-2.71-1.37-4.36-1-2,.44-3.39,2.66-4.37,4.68-4.25,8.79-7.22,18.19-8.49,27.79"/>
        <path class="cls-8" d="M473.19,138.56c-16.22,1.25-27.88-6.77-43.01-2.44-3.76,1.07-7.56,12.47-10.91,14.53-1.89,1.16-7.15.47-12.35-.08-5.06-.54-10-1.03-11.61.38-5.24,4.6-9.98,18.16-15.92,20.94-23.09,10.9-36.75-9.63-62.41-5.18-14.3,2.48-36.01,22.12-50.77,30.35-5.36,2.99-10.7,5.39-15.9,6.64-17.47,4.22-28.62-7.86-44.53.64-8.51,4.55-24.58,27.52-31.59,25.47-1.43-.42-2.72-1.41-4.38-1.06-2.01.43-3.4,2.65-4.39,4.67-4.26,8.8-7.23,18.2-8.52,27.81"/>
        <path class="cls-8" d="M473.59,139.29c-16.29,1.26-27.98-6.84-43.18-2.45-3.75,1.08-7.55,12.61-10.89,14.68-1.88,1.17-7.17.46-12.4-.1-5.09-.55-10.06-1.06-11.66.36-5.22,4.62-9.96,18.31-15.91,21.11-23.18,10.96-36.92-9.82-62.67-5.4-14.32,2.46-35.84,22.07-50.62,30.36-5.35,3-10.67,5.4-15.86,6.64-17.47,4.17-28.57-8.18-44.49.27-8.49,4.51-24.64,27.62-31.64,25.47-1.44-.44-2.72-1.46-4.39-1.11-2.02.42-3.42,2.64-4.4,4.67-4.26,8.8-7.24,18.22-8.55,27.84"/>
        <path class="cls-8" d="M473.99,140.01c-16.35,1.27-28.09-6.91-43.35-2.46-3.75,1.09-7.55,12.74-10.88,14.83-1.88,1.18-7.2.46-12.45-.12-5.12-.57-10.11-1.09-11.71.33-5.21,4.65-9.94,18.46-15.91,21.28-23.26,11.02-37.1-10-62.93-5.62-14.35,2.44-35.66,22.01-50.46,30.37-5.33,3.01-10.65,5.41-15.82,6.63-17.47,4.12-28.52-8.49-44.45-.09-8.48,4.47-24.7,27.72-31.69,25.46-1.44-.47-2.73-1.5-4.41-1.17-2.03.4-3.43,2.63-4.42,4.66-4.26,8.81-7.25,18.24-8.59,27.86"/>
        <path class="cls-8" d="M474.39,140.74c-16.42,1.28-28.19-6.98-43.52-2.47-3.75,1.1-7.54,12.88-10.86,14.98-1.87,1.19-7.22.45-12.5-.14-5.14-.58-10.17-1.12-11.76.31-5.19,4.67-9.92,18.62-15.9,21.44-23.34,11.08-37.27-10.19-63.19-5.83-14.38,2.42-35.48,21.95-50.31,30.38-5.32,3.02-10.62,5.42-15.78,6.63-17.47,4.07-28.47-8.81-44.41-.45-8.47,4.44-24.76,27.82-31.74,25.45-1.45-.49-2.74-1.55-4.43-1.23-2.04.39-3.45,2.62-4.43,4.65-4.27,8.82-7.26,18.25-8.62,27.89"/>
        <path class="cls-8" d="M474.8,141.47c-16.48,1.3-28.29-7.05-43.69-2.48-3.75,1.11-7.54,13.02-10.84,15.14-1.86,1.19-7.24.44-12.55-.17-5.17-.6-10.22-1.15-11.81.29-5.18,4.7-9.9,18.77-15.9,21.61-23.42,11.14-37.44-10.38-63.45-6.05-14.4,2.39-35.31,21.89-50.15,30.38-5.3,3.03-10.59,5.44-15.74,6.62-17.48,4.02-28.42-9.12-44.37-.82-8.45,4.4-24.82,27.92-31.79,25.44-1.45-.52-2.75-1.59-4.44-1.29-2.05.37-3.46,2.61-4.44,4.65-4.27,8.83-7.27,18.27-8.65,27.91"/>
        <path class="cls-8" d="M475.2,142.19c-16.55,1.31-28.39-7.13-43.86-2.49-3.74,1.12-7.53,13.15-10.83,15.29-1.86,1.2-7.27.44-12.61-.19-5.2-.62-10.28-1.18-11.86.26-5.16,4.73-9.88,18.92-15.89,21.78-23.51,11.2-37.61-10.56-63.71-6.27-14.43,2.37-35.13,21.84-50,30.39-5.29,3.04-10.56,5.45-15.71,6.62-17.48,3.97-28.37-9.44-44.33-1.18-8.44,4.37-24.88,28.02-31.84,25.43-1.46-.54-2.76-1.64-4.46-1.34-2.06.36-3.48,2.6-4.46,4.64-4.27,8.84-7.28,18.29-8.69,27.94"/>
        <path class="cls-8" d="M475.6,142.92c-16.61,1.32-28.5-7.2-44.03-2.49-3.74,1.13-7.53,13.29-10.81,15.44-1.85,1.21-7.29.43-12.66-.21-5.23-.63-10.34-1.21-11.91.24-5.14,4.75-9.86,19.08-15.89,21.95-23.59,11.26-37.78-10.75-63.98-6.49-14.45,2.35-34.96,21.78-49.84,30.4-5.28,3.06-10.54,5.46-15.67,6.61-17.48,3.92-28.31-9.75-44.29-1.54-8.42,4.33-24.93,28.12-31.9,25.43-1.46-.57-2.77-1.68-4.48-1.4-2.07.34-3.49,2.59-4.47,4.63-4.27,8.85-7.29,18.3-8.72,27.96"/>
        <path class="cls-8" d="M476,143.65c-16.68,1.33-28.6-7.27-44.2-2.5-3.74,1.14-7.52,13.43-10.8,15.59-1.84,1.22-7.31.42-12.71-.24-5.25-.65-10.39-1.24-11.95.22-5.13,4.78-9.83,19.23-15.89,22.11-23.67,11.32-37.96-10.93-64.24-6.71-14.48,2.33-34.78,21.72-49.69,30.41-5.26,3.07-10.51,5.47-15.63,6.61-17.48,3.87-28.26-10.07-44.25-1.9-8.41,4.29-24.99,28.22-31.95,25.42-1.46-.59-2.78-1.73-4.49-1.46-2.08.33-3.5,2.58-4.49,4.62-4.28,8.86-7.3,18.32-8.75,27.99"/>
        <path class="cls-8" d="M476.4,144.37c-16.74,1.34-28.7-7.34-44.37-2.51-3.74,1.15-7.52,13.56-10.78,15.74-1.84,1.22-7.34.42-12.76-.26-5.28-.66-10.45-1.27-12,.19-5.11,4.8-9.81,19.39-15.88,22.28-23.75,11.37-38.13-11.12-64.5-6.92-14.5,2.31-34.61,21.66-49.54,30.41-5.25,3.08-10.48,5.49-15.59,6.6-17.48,3.82-28.21-10.38-44.21-2.27-8.4,4.26-25.04,28.32-32,25.41-1.47-.61-2.78-1.78-4.51-1.51-2.09.32-3.52,2.57-4.5,4.62-4.28,8.87-7.31,18.34-8.78,28.01"/>
        <path class="cls-8" d="M476.81,145.1c-16.81,1.35-28.81-7.42-44.54-2.52-3.74,1.16-7.51,13.69-10.77,15.89-1.83,1.23-7.36.41-12.81-.28-5.31-.68-10.5-1.3-12.05.17-5.1,4.83-9.79,19.54-15.88,22.45-23.84,11.43-38.3-11.3-64.76-7.14-14.53,2.29-34.43,21.61-49.38,30.42-5.24,3.09-10.46,5.5-15.55,6.6-17.48,3.77-28.16-10.7-44.17-2.63-8.38,4.22-25.1,28.42-32.05,25.4-1.47-.64-2.79-1.82-4.53-1.57-2.1.3-3.53,2.56-4.52,4.61-4.28,8.88-7.32,18.35-8.82,28.04"/>
        <path class="cls-8" d="M477.21,145.83c-16.87,1.36-28.91-7.49-44.71-2.53-3.73,1.17-7.51,13.83-10.75,16.04-1.83,1.24-7.38.4-12.86-.31-5.34-.69-10.56-1.33-12.1.15-5.08,4.86-9.77,19.69-15.87,22.61-23.92,11.49-38.47-11.49-65.02-7.36-14.56,2.26-34.26,21.55-49.23,30.43-5.22,3.1-10.43,5.51-15.51,6.59-17.48,3.71-28.11-11.01-44.13-2.99-8.37,4.19-25.15,28.52-32.1,25.39-1.47-.66-2.8-1.87-4.54-1.63-2.11.29-3.55,2.55-4.53,4.6-4.28,8.89-7.33,18.37-8.85,28.06"/>
        <path class="cls-8" d="M477.61,146.55c-16.94,1.37-29.01-7.56-44.88-2.54-3.73,1.18-7.5,13.97-10.74,16.19-1.82,1.24-7.41.4-12.91-.33-5.36-.71-10.61-1.36-12.15.12-5.06,4.88-9.75,19.85-15.87,22.78-24,11.55-38.64-11.67-65.28-7.58-14.58,2.24-34.08,21.49-49.07,30.44-5.21,3.11-10.4,5.52-15.47,6.59-17.49,3.66-28.06-11.33-44.09-3.35-8.35,4.15-25.2,28.62-32.15,25.39-1.48-.69-2.81-1.91-4.56-1.69-2.12.27-3.56,2.54-4.55,4.6-4.29,8.9-7.34,18.39-8.88,28.09"/>
        <path class="cls-8" d="M478.01,147.28c-17,1.39-29.11-7.64-45.06-2.55-3.73,1.19-7.5,14.1-10.72,16.34-1.81,1.25-7.43.39-12.97-.35-5.39-.73-10.67-1.39-12.2.1-5.05,4.91-9.73,20-15.86,22.95-24.08,11.61-38.82-11.86-65.54-7.8-14.61,2.22-33.91,21.43-48.92,30.44-5.2,3.12-10.37,5.54-15.44,6.58-17.49,3.61-28.01-11.64-44.05-3.72-8.34,4.12-25.25,28.72-32.21,25.38-1.48-.71-2.82-1.96-4.58-1.74-2.13.26-3.58,2.54-4.56,4.59-4.29,8.91-7.35,18.4-8.91,28.11"/>
        <path class="cls-8" d="M478.42,148.01c-17.07,1.4-29.22-7.71-45.23-2.55-3.73,1.2-7.49,14.24-10.7,16.5-1.81,1.26-7.45.38-13.02-.38-5.42-.74-10.73-1.42-12.25.08-5.03,4.94-9.71,20.15-15.86,23.11-24.17,11.67-38.99-12.04-65.8-8.01-14.63,2.2-33.73,21.37-48.76,30.45-5.18,3.13-10.35,5.55-15.4,6.58-17.49,3.56-27.96-11.95-44.01-4.08-8.33,4.08-25.31,28.82-32.26,25.37-1.48-.74-2.83-2-4.59-1.8-2.14.24-3.59,2.53-4.58,4.58-4.29,8.92-7.36,18.42-8.95,28.14"/>
        <path class="cls-8" d="M478.82,148.73c-17.13,1.41-29.32-7.78-45.4-2.56-3.73,1.21-7.49,14.38-10.69,16.65-1.8,1.27-7.48.37-13.07-.4-5.45-.76-10.78-1.45-12.3.05-5.01,4.96-9.69,20.31-15.85,23.28-24.25,11.73-39.16-12.23-66.06-8.23-14.66,2.18-33.56,21.31-48.61,30.46-5.17,3.14-10.32,5.56-15.36,6.57-17.49,3.51-27.9-12.27-43.97-4.44-8.31,4.05-25.36,28.92-32.31,25.36-1.49-.76-2.83-2.05-4.61-1.86-2.15.23-3.6,2.52-4.59,4.57-4.29,8.93-7.37,18.43-8.98,28.16"/>
        <path class="cls-8" d="M479.22,149.46c-17.2,1.42-29.43-7.86-45.57-2.57-3.72,1.22-7.48,14.51-10.67,16.8-1.79,1.28-7.5.37-13.12-.42-5.48-.77-10.84-1.48-12.35.03-5,4.99-9.67,20.46-15.85,23.45-24.33,11.79-39.33-12.41-66.32-8.45-14.69,2.16-33.38,21.25-48.46,30.47-5.16,3.15-10.29,5.57-15.32,6.57-17.49,3.46-27.85-12.58-43.94-4.81-8.3,4.01-25.41,29.02-32.36,25.35-1.49-.79-2.84-2.09-4.63-1.92-2.16.22-3.62,2.51-4.61,4.57-4.3,8.94-7.38,18.45-9.01,28.19"/>
        <path class="cls-8" d="M479.62,150.19c-17.27,1.43-29.53-7.93-45.74-2.58-3.72,1.23-7.47,14.65-10.66,16.95-1.79,1.28-7.53.36-13.17-.45-5.5-.79-10.89-1.51-12.4,0-4.98,5.01-9.65,20.61-15.84,23.61-24.41,11.85-39.5-12.6-66.58-8.67-14.71,2.13-33.21,21.19-48.3,30.48-5.14,3.16-10.27,5.59-15.28,6.56-17.49,3.4-27.8-12.89-43.9-5.17-8.28,3.98-25.46,29.12-32.41,25.35-1.49-.81-2.85-2.14-4.64-1.97-2.17.2-3.63,2.5-4.62,4.56-4.3,8.95-7.39,18.47-9.05,28.21"/>
        <path class="cls-8" d="M480.02,150.91c-17.33,1.44-29.63-8.01-45.91-2.59-3.72,1.24-7.47,14.79-10.64,17.1-1.78,1.29-7.55.35-13.22-.47-5.53-.8-10.95-1.54-12.45-.01-4.97,5.04-9.62,20.77-15.84,23.78-24.5,11.91-39.68-12.78-66.84-8.89-14.74,2.11-33.04,21.13-48.15,30.48-5.13,3.17-10.24,5.6-15.24,6.56-17.5,3.35-27.75-13.21-43.86-5.53-8.27,3.94-25.51,29.22-32.46,25.34-1.5-.83-2.86-2.19-4.66-2.03-2.18.19-3.65,2.49-4.64,4.55-4.3,8.96-7.4,18.48-9.08,28.24"/>
        <path class="cls-8" d="M480.43,151.64c-17.4,1.45-29.74-8.08-46.08-2.6-3.72,1.25-7.46,14.92-10.63,17.25-1.77,1.3-7.57.35-13.27-.49-5.56-.82-11-1.57-12.5-.04-4.95,5.07-9.6,20.92-15.83,23.95-24.58,11.96-39.85-12.97-67.1-9.1-14.76,2.09-32.86,21.07-47.99,30.49-5.12,3.18-10.21,5.61-15.2,6.55-17.5,3.3-27.7-13.52-43.82-5.89-8.26,3.91-25.55,29.32-32.52,25.33-1.5-.86-2.87-2.23-4.68-2.09-2.19.17-3.66,2.48-4.65,4.54-4.3,8.96-7.41,18.5-9.11,28.26"/>
        <path class="cls-8" d="M480.83,152.37c-17.46,1.46-29.84-8.16-46.25-2.6-3.72,1.26-7.46,15.06-10.61,17.4-1.77,1.31-7.6.34-13.32-.51-5.59-.84-11.06-1.6-12.55-.06-4.93,5.09-9.58,21.08-15.83,24.12-24.66,12.02-40.01-13.1-67.37-9.32-14.78,2.1-32.69,21.01-47.84,30.5-5.1,3.19-10.19,5.62-15.16,6.55-17.5,3.25-27.65-13.84-43.78-6.26-8.24,3.87-25.6,29.42-32.57,25.32-1.5-.88-2.88-2.28-4.69-2.15-2.21.16-3.67,2.47-4.67,4.54-4.31,8.97-7.42,18.52-9.14,28.29"/>
        <path class="cls-8" d="M481.23,153.09c-17.53,1.47-29.95-8.23-46.42-2.61-3.71,1.27-7.45,15.2-10.6,17.55-1.76,1.31-7.62.33-13.38-.54-5.61-.85-11.11-1.63-12.59-.08-4.92,5.12-9.56,21.23-15.83,24.28-24.74,12.08-40.19-13.29-67.63-9.54-14.81,2.08-32.52,20.95-47.69,30.51-5.09,3.2-10.16,5.63-15.13,6.54-17.5,3.19-27.59-14.15-43.74-6.62-8.23,3.84-25.65,29.52-32.62,25.31-1.5-.91-2.88-2.32-4.71-2.2-2.22.14-3.69,2.46-4.68,4.53-4.31,8.98-7.43,18.53-9.18,28.31"/>
        <path class="cls-8" d="M481.63,153.82c-17.59,1.49-30.05-8.31-46.59-2.62-3.71,1.28-7.45,15.33-10.58,17.7-1.75,1.32-7.64.33-13.43-.56-5.64-.87-11.17-1.66-12.64-.11-4.9,5.15-9.54,21.38-15.82,24.45-24.83,12.14-40.36-13.48-67.89-9.76-14.84,2.05-32.34,20.89-47.53,30.51-5.08,3.22-10.13,5.65-15.09,6.54-17.5,3.14-27.54-14.46-43.7-6.98-8.21,3.8-25.7,29.62-32.67,25.31-1.51-.93-2.89-2.37-4.73-2.26-2.23.13-3.7,2.45-4.7,4.52-4.31,8.99-7.44,18.55-9.21,28.34"/>
        <path class="cls-8" d="M482.04,154.55c-17.66,1.5-30.16-8.38-46.76-2.63-3.71,1.29-7.44,15.47-10.56,17.86-1.75,1.33-7.67.32-13.48-.58-5.67-.88-11.22-1.68-12.69-.13-4.87,5.18-9.52,21.54-15.82,24.62-24.91,12.2-40.53-13.66-68.15-9.98-14.86,2.03-32.17,20.83-47.38,30.52-5.06,3.23-10.1,5.66-15.05,6.53-17.5,3.09-27.49-14.77-43.66-7.35-8.2,3.77-25.74,29.72-32.72,25.3-1.51-.96-2.9-2.41-4.74-2.32-2.24.12-3.72,2.44-4.71,4.52-4.31,9-7.45,18.57-9.24,28.37"/>
        <path class="cls-8" d="M482.44,155.27c-17.72,1.51-30.26-8.46-46.93-2.64-3.71,1.29-7.44,15.61-10.55,18.01-1.74,1.34-7.69.31-13.53-.61-5.7-.9-11.28-1.71-12.74-.15-4.86,5.21-9.5,21.69-15.81,24.78-24.99,12.26-40.7-13.85-68.41-10.19-14.89,2.01-32,20.77-47.22,30.53-5.05,3.24-10.08,5.67-15.01,6.53-17.5,3.04-27.44-15.09-43.62-7.71-8.18,3.73-25.79,29.83-32.77,25.29-1.51-.98-2.91-2.46-4.76-2.38-2.25.1-3.73,2.43-4.73,4.51-4.32,9.01-7.46,18.58-9.28,28.39"/>
        <path class="cls-8" d="M482.84,156c-17.79,1.52-30.37-8.54-47.1-2.65-3.71,1.3-7.43,15.74-10.53,18.16-1.74,1.35-7.71.31-13.58-.63-5.72-.91-11.33-1.74-12.79-.18-4.84,5.23-9.48,21.84-15.81,24.95-25.07,12.32-40.88-14.04-68.67-10.41-14.92,1.98-31.82,20.71-47.07,30.54-5.04,3.25-10.05,5.68-14.97,6.52-17.51,2.98-27.39-15.4-43.58-8.07-8.17,3.7-25.84,29.93-32.83,25.28-1.51-1.01-2.92-2.51-4.78-2.43-2.26.09-3.75,2.42-4.74,4.5-4.32,9.02-7.47,18.6-9.31,28.42"/>
        <path class="cls-8" d="M483.24,156.73c-17.85,1.53-30.47-8.61-47.27-2.66-3.7,1.31-7.42,15.88-10.52,18.31-1.73,1.35-7.74.3-13.63-.65-5.75-.93-11.39-1.77-12.84-.2-4.83,5.26-9.46,22-15.8,25.12-25.16,12.38-41.05-14.23-68.93-10.63-14.94,1.96-31.65,20.65-46.91,30.54-5.03,3.26-10.02,5.68-14.93,6.51-17.51,2.9-27.32-15.68-43.54-8.43-8.15,3.68-25.88,30.03-32.88,25.27-1.52-1.03-2.93-2.55-4.79-2.49-2.27.07-3.76,2.41-4.76,4.49-4.32,9.03-7.48,18.62-9.34,28.44"/>
        <path class="cls-8" d="M483.65,157.45c-17.92,1.54-30.58-8.69-47.44-2.66-3.7,1.32-7.42,16.02-10.5,18.46-1.72,1.36-7.76.29-13.68-.68-5.78-.94-11.45-1.8-12.89-.22-4.81,5.28-9.44,22.15-15.8,25.28-25.24,12.44-41.22-14.42-69.19-10.85-14.97,1.93-31.48,20.59-46.76,30.55-5.01,3.27-10,5.7-14.89,6.51-17.51,2.85-27.27-16-43.5-8.8-8.14,3.64-25.93,30.13-32.93,25.27-1.52-1.05-2.93-2.6-4.81-2.55-2.28.06-3.77,2.4-4.77,4.49-4.32,9.04-7.49,18.63-9.37,28.47"/>
        <path class="cls-8" d="M484.05,158.18c-17.98,1.55-30.68-8.77-47.61-2.67-3.7,1.33-7.41,16.15-10.49,18.61-1.72,1.37-7.78.28-13.74-.7-5.81-.96-11.5-1.83-12.94-.25-4.8,5.31-9.41,22.3-15.79,25.45-25.32,12.5-41.4-14.61-69.45-11.07-14.99,1.91-31.33,20.5-46.61,30.56-5.01,3.27-9.97,5.71-14.85,6.5-17.51,2.8-27.22-16.32-43.46-9.16-8.12,3.6-25.97,30.23-32.98,25.26-1.52-1.08-2.94-2.64-4.83-2.61-2.29.04-3.79,2.39-4.79,4.48-4.33,9.05-7.5,18.65-9.41,28.49"/>
        <path class="cls-8" d="M484.45,158.91c-18.05,1.56-30.8-8.87-47.79-2.68-3.7,1.33-7.41,16.29-10.47,18.76-1.71,1.38-7.81.28-13.79-.72-5.84-.98-11.56-1.86-12.99-.27-4.78,5.33-9.39,22.46-15.79,25.62-25.4,12.55-41.57-14.8-69.71-11.28-15.02,1.89-31.15,20.45-46.45,30.57-4.99,3.28-9.94,5.72-14.82,6.5-17.51,2.76-27.17-16.64-43.42-9.52-8.11,3.57-26.02,30.34-33.03,25.25-1.52-1.1-2.95-2.69-4.84-2.66-2.3.03-3.8,2.38-4.8,4.47-4.33,9.06-7.51,18.67-9.44,28.52"/>
        <path class="cls-8" d="M484.85,159.63c-18.11,1.58-30.9-8.94-47.96-2.69-3.7,1.35-7.4,16.43-10.46,18.91-1.7,1.39-7.83.27-13.84-.75-5.86-.99-11.61-1.89-13.04-.29-4.77,5.36-9.37,22.61-15.78,25.78-25.49,12.61-41.74-14.99-69.97-11.5-15.05,1.86-30.97,20.4-46.3,30.57-4.98,3.29-9.91,5.74-14.78,6.49-17.51,2.71-27.13-16.95-43.38-9.89-8.1,3.53-26.06,30.44-33.08,25.24-1.52-1.13-2.96-2.73-4.86-2.72-2.31.02-3.82,2.37-4.82,4.47-4.33,9.07-7.52,18.68-9.47,28.54"/>
        <path class="cls-8" d="M485.25,160.36c-18.18,1.59-31-9-48.13-2.7-3.7,1.36-7.4,16.56-10.44,19.06-3.35,2.75-24.11-4.34-26.98-1.09-4.75,5.38-9.35,22.77-15.78,25.95-25.57,12.67-41.91-15.18-70.23-11.72-19.95,2.43-41.02,34.05-60.88,37.07-17.51,2.66-27.08-17.27-43.34-10.25-8.08,3.49-26.1,30.54-33.14,25.23-1.53-1.15-2.97-2.78-4.88-2.78-2.32,0-3.83,2.37-4.83,4.46-4.33,9.08-7.53,18.7-9.5,28.57"/>
      </g>
      <rect class="cls-1" y="194.76" width="389.14" height="194.74"/>
      <g>
        <g>
          <path class="cls-7" d="M330.6,191.21v.07h-12.27v-.05c-.15-3.41-.32-6.82-.47-10.23-1.3-17.32-6.28-33.51-14.5-48.74-25.09-46.56-78.3-72.64-130.04-62.87-44.33,8.37-75.43,33.95-93.41,75.28-5,11.53-7.8,23.72-8.63,36.31-.05.27-.1.54-.15.81-.05,1.2-.1,2.4-.15,3.63-.07,1.94-.12,3.88-.2,5.81v.05h-12.27v-.07c.47-6.35.61-12.73,1.45-19.01,3.16-23.35,11.97-44.47,26.37-63.12,22.15-28.73,51.17-46.56,87.06-52.08,40.4-6.21,76.76,3.9,108.25,30,25.1,20.8,40.55,47.54,46.61,79.6,1.05,5.49,1.3,11.16,1.86,16.75.25,2.6.32,5.23.47,7.85Z"/>
          <path class="cls-4" d="M330.6,191.29v.27c0,.66-.02,1.32-.02,2.01-.05,1.37-.1,2.72-.12,4.1-.42,4.32-.83,8.63-1.25,12.95-1.55,6.92-2.65,13.96-4.73,20.7-9.71,31.15-28.43,55.68-55.54,73.81-.56.37-.96.88-1.45,1.37-1.13.66-2.23,1.35-3.34,2.01-.52.2-1.03.42-1.55.64-1.74,1.01-3.43,2.04-5.18,3.04-.69.34-1.32.66-2.01,1.01-.44.22-.88.44-1.35.66-.81.32-1.62.66-2.43.98-13.66,6.45-28.06,10.23-43.05,11.75-17.39,1.77-34.49.22-51.37-4.34-6.77-1.84-13.27-4.37-19.7-7.11-.83-.42-1.64-.86-2.45-1.28-.22-.1-.42-.2-.64-.32-1.13-.56-2.26-1.13-3.39-1.69-.74-.44-1.42-.91-2.16-1.35-.52-.22-1.03-.44-1.55-.66-.78-.44-1.55-.88-2.33-1.32-.71-.59-1.35-1.2-2.11-1.67-11.55-7.21-21.81-15.92-30.74-26.17-17-19.55-27.6-42.14-31.89-67.7-.52-5.1-1.05-10.18-1.57-15.28-.05-1.25-.1-2.53-.15-3.8v-2.06c0-.2-.02-.37-.02-.54h12.27v1.91c.34,4.76.44,9.52,1.03,14.25,1.28,10.4,4,20.46,7.92,30.2,17.78,43.93,60.1,75.26,109.31,77.35,9.03.37,17.96-.2,26.86-1.74,44.03-7.68,80.83-38.93,95.55-81.17,4.39-12.58,6.72-25.54,6.87-38.88v-1.91h12.27Z"/>
        </g>
        <path class="cls-5" d="M183.43,75.74c3.29-2.19,6.59-4.35,9.85-6.57.92-.62,1.65-.62,2.56,0,3.26,2.23,6.56,4.39,9.85,6.58,6.98,5.54,13.42,11.61,18.95,18.63,12.12,15.41,19.61,32.78,22.07,52.25.52,4.14.62,8.34.99,12.51.05.61.41,1.45.89,1.74,13.03,7.81,23.93,17.9,32.75,30.25.06.09.16.16.24.23.1.18.21.36.31.54,8.38,12.29,14.2,25.67,16.86,40.32.82,4.53,1.07,9.16,1.56,13.74.17,1.65.22,3.32.39,4.98.11,1.04-.31,1.6-1.21,2.1-10.13,5.65-20.88,9.55-32.28,11.69-8.44,1.59-16.95,2.1-25.51,1.64-16.08-.87-31.18-5.21-45.25-13.05-1.4-.78-2.39-.74-3.77.02-18.82,10.37-38.96,14.54-60.36,12.77-15.02-1.25-29.09-5.61-42.29-12.86-1.18-.65-1.61-1.37-1.59-2.74.39-20.67,6.35-39.6,17.66-56.88.43-.65.83-1.32,1.24-1.98.07-.1.15-.21.22-.31,3.3-4.01,6.43-8.17,9.93-11.98,6.61-7.2,14.25-13.19,22.66-18.18,1.01-.6,1.32-1.26,1.35-2.38,1.05-33.66,14.71-61.06,40.92-82.2.35-.28.67-.58,1.01-.88ZM243.12,191.28c-.03.12-.05.24-.08.36-.11.26-.24.51-.32.77-6.06,18.96-16.63,34.95-31.59,48.06-.36.32-.8.55-1.26.87.43.36.54.49.68.56,10.44,4.82,21.45,7.49,32.9,7.99,5.09.22,10.23-.16,15.31-.68,8.2-.85,16.08-3.11,23.69-6.28.88-.37,1.12-.81,1-1.76-.92-6.88-2.49-13.6-4.94-20.1-4.17-11.03-10.13-20.97-18.28-29.53-.08-.1-.16-.19-.23-.29-4.08-4.58-8.74-8.48-13.81-12.12-1.06,4.19-2.06,8.17-3.06,12.14ZM146.01,191.28c-1-3.98-2-7.95-3.05-12.14-5.07,3.63-9.74,7.54-13.82,12.11l-.23.28c-.32.31-.65.61-.94.94-12.45,13.94-19.83,30.19-22.29,48.71-.15,1.1.31,1.45,1.18,1.81,11.38,4.7,23.19,7.12,35.52,6.96,12.33-.17,24.14-2.68,35.41-7.69.43-.19.83-.44,1.35-.72-.56-.51-.96-.9-1.38-1.26-8.52-7.45-15.65-16.05-21.45-25.76-4.31-7.22-7.59-14.9-10.2-22.88-.03-.12-.05-.24-.08-.36ZM225.28,191.94c.07-.2.15-.4.22-.6,2.42-6.23,3.84-12.69,4.82-19.29.21-1.46-.23-2.03-1.53-2.56-14.81-6-30.14-7.99-45.98-5.96-7.9,1.01-15.53,3.12-22.89,6.18-.78.32-1.28.6-1.15,1.67.86,6.84,2.39,13.51,4.87,19.95.07.2.15.4.22.6,4.29,11.7,10.86,21.98,19.59,30.84,3.43,3.48,7.22,6.62,11.02,10.07,3.22-2.8,6.27-5.25,9.08-7.94,9.73-9.33,17.05-20.29,21.73-32.97ZM230.66,152.4c-.13-1.21-.22-2.19-.35-3.16-3.32-24.73-14.92-44.7-34.52-60.09-1.13-.89-1.79-.54-2.71.18-17.32,13.58-28.41,31.09-33.08,52.61-.73,3.36-1.12,6.78-1.72,10.53,24.31-8.37,48.24-8.4,72.38-.06Z"/>
        <path class="cls-6" d="M330.6,191.29v.27c0,.66-.02,1.32-.02,2.01-.05,1.37-.1,2.72-.12,4.1-.42,4.32-.83,8.63-1.25,12.95-1.55,6.92-2.65,13.96-4.73,20.7-9.71,31.15-28.43,55.68-55.54,73.81-.56.37-.96.88-1.45,1.37-1.13.66-2.23,1.35-3.34,2.01-.52.2-1.03.42-1.55.64-1.74,1.01-3.43,2.04-5.18,3.04-.69.34-1.32.66-2.01,1.01-.44.22-.88.44-1.35.66-.81.32-1.62.66-2.43.98-13.66,6.45-28.06,10.23-43.05,11.75-17.39,1.77-34.49.22-51.37-4.34-6.77-1.84-13.27-4.37-19.7-7.11-.83-.42-1.64-.86-2.45-1.28-.22-.1-.42-.2-.64-.32-1.13-.56-2.26-1.13-3.39-1.69-.74-.44-1.42-.91-2.16-1.35-.52-.22-1.03-.44-1.55-.66-.78-.44-1.55-.88-2.33-1.32-.71-.59-1.35-1.2-2.11-1.67-11.55-7.21-21.81-15.92-30.74-26.17-17-19.55-27.6-42.14-31.89-67.7-.52-5.1-1.05-10.18-1.57-15.28-.05-1.25-.1-2.53-.15-3.8v-2.06c0-.2-.02-.37-.02-.54h12.27v1.91c.34,4.76.44,9.52,1.03,14.25,1.28,10.4,4,20.46,7.92,30.2,17.78,43.93,60.1,75.26,109.31,77.35,9.03.37,17.96-.2,26.86-1.74,44.03-7.68,80.83-38.93,95.55-81.17,4.39-12.58,6.72-25.54,6.87-38.88v-1.91h12.27Z"/>
      </g>
    </g>
  </g>
</svg>